<?xml version="1.0" encoding="UTF-8"?>
<!DOCTYPE svg PUBLIC "-//W3C//DTD SVG 1.1//EN" "http://www.w3.org/Graphics/SVG/1.1/DTD/svg11.dtd">
<svg xmlns="http://www.w3.org/2000/svg" version="1.1" width="1200px" height="900px" style="shape-rendering:geometricPrecision; text-rendering:geometricPrecision; image-rendering:optimizeQuality; fill-rule:evenodd; clip-rule:evenodd" xmlns:xlink="http://www.w3.org/1999/xlink">
<g><path style="opacity:1" fill="#fefefe" d="M -0.5,-0.5 C 399.5,-0.5 799.5,-0.5 1199.5,-0.5C 1199.5,299.5 1199.5,599.5 1199.5,899.5C 799.5,899.5 399.5,899.5 -0.5,899.5C -0.5,599.5 -0.5,299.5 -0.5,-0.5 Z"/></g>
<g><path style="opacity:1" fill="#0d96da" d="M 599.5,80.5 C 601.018,83.5341 601.851,86.8675 602,90.5C 616.411,201.93 618.411,313.597 608,425.5C 606.133,443.299 603.466,460.965 600,478.5C 591.808,429.539 587.142,380.205 586,330.5C 582.885,246.722 587.385,163.388 599.5,80.5 Z"/></g>
<g><path style="opacity:1" fill="#1197da" d="M 528.5,163.5 C 535.428,257.477 500.428,331.644 423.5,386C 389.819,408.508 353.153,423.841 313.5,432C 368.609,409.881 415.442,376.381 454,331.5C 474.163,306.633 491.163,279.633 505,250.5C 516.198,222.407 524.031,193.407 528.5,163.5 Z"/></g>
<g><path style="opacity:1" fill="#1397da" d="M 669.5,163.5 C 682.519,243.377 718.519,310.877 777.5,366C 809.927,393.561 845.927,415.561 885.5,432C 813.318,417.352 755.151,380.852 711,322.5C 678.726,274.479 664.892,221.479 669.5,163.5 Z"/></g>
<g><path style="opacity:1" fill="#1497db" d="M 444.5,252.5 C 445.097,252.735 445.43,253.235 445.5,254C 437.88,276.417 426.046,296.25 410,313.5C 378.577,345.641 342.077,370.474 300.5,388C 246.089,411.581 189.756,428.915 131.5,440C 114.906,443.18 98.2389,445.514 81.5,447C 161.179,429.321 237.512,402.321 310.5,366C 357.393,341.623 398.227,309.457 433,269.5C 437.339,264.15 441.172,258.484 444.5,252.5 Z"/></g>
<g><path style="opacity:1" fill="#1497db" d="M 753.5,252.5 C 769.438,275.613 788.438,296.113 810.5,314C 848.538,344.632 890.204,369.632 935.5,389C 994.395,413.965 1055.06,433.299 1117.5,447C 1029,437.207 944.999,412.207 865.5,372C 832.169,353.343 803.002,329.509 778,300.5C 766.405,286.31 758.238,270.31 753.5,252.5 Z"/></g>
<g><path style="opacity:1" fill="#242021" d="M 290.5,733.5 C 278.833,733.5 267.167,733.5 255.5,733.5C 255.5,679.167 255.5,624.833 255.5,570.5C 256.833,563.665 260.833,559.165 267.5,557C 306.167,556.333 344.833,556.333 383.5,557C 389.501,558.336 393.668,561.836 396,567.5C 396.667,595.167 396.667,622.833 396,650.5C 394.628,654.862 392.128,658.362 388.5,661C 381.885,662.048 375.218,662.881 368.5,663.5C 378.235,687.044 387.568,710.711 396.5,734.5C 384.814,734.832 373.148,734.499 361.5,733.5C 351.833,710.167 342.167,686.833 332.5,663.5C 318.516,662.501 304.516,662.167 290.5,662.5C 290.5,686.167 290.5,709.833 290.5,733.5 Z"/></g>
<g><path style="opacity:1" fill="#7e7c7c" d="M 480.5,557.5 C 468.833,557.5 457.167,557.5 445.5,557.5C 445.5,616.167 445.5,674.833 445.5,733.5C 457.167,733.5 468.833,733.5 480.5,733.5C 468.678,734.495 456.678,734.828 444.5,734.5C 444.5,675.167 444.5,615.833 444.5,556.5C 456.678,556.172 468.678,556.505 480.5,557.5 Z"/></g>
<g><path style="opacity:1" fill="#231f20" d="M 480.5,557.5 C 480.5,580.833 480.5,604.167 480.5,627.5C 504.328,628.498 528.328,628.831 552.5,628.5C 552.5,604.833 552.5,581.167 552.5,557.5C 564.167,557.5 575.833,557.5 587.5,557.5C 587.5,616.167 587.5,674.833 587.5,733.5C 575.833,733.5 564.167,733.5 552.5,733.5C 552.5,709.833 552.5,686.167 552.5,662.5C 528.328,662.169 504.328,662.502 480.5,663.5C 480.5,686.833 480.5,710.167 480.5,733.5C 468.833,733.5 457.167,733.5 445.5,733.5C 445.5,674.833 445.5,616.167 445.5,557.5C 457.167,557.5 468.833,557.5 480.5,557.5 Z"/></g>
<g><path style="opacity:1" fill="#7d7a7b" d="M 587.5,557.5 C 575.833,557.5 564.167,557.5 552.5,557.5C 552.5,581.167 552.5,604.833 552.5,628.5C 528.328,628.831 504.328,628.498 480.5,627.5C 504.167,627.5 527.833,627.5 551.5,627.5C 551.5,603.833 551.5,580.167 551.5,556.5C 563.678,556.172 575.678,556.505 587.5,557.5 Z"/></g>
<g><path style="opacity:1" fill="#242021" d="M 754.5,591.5 C 726.5,591.5 698.5,591.5 670.5,591.5C 670.168,627.337 670.502,663.004 671.5,698.5C 699.167,698.5 726.833,698.5 754.5,698.5C 754.5,710.5 754.5,722.5 754.5,734.5C 719.165,734.667 683.832,734.5 648.5,734C 642.224,732.058 638.39,727.891 637,721.5C 636.333,670.167 636.333,618.833 637,567.5C 639.332,561.836 643.499,558.336 649.5,557C 684.498,556.5 719.498,556.333 754.5,556.5C 754.5,568.167 754.5,579.833 754.5,591.5 Z"/></g>
<g><path style="opacity:1" fill="#231f20" d="M 943.5,570.5 C 943.5,624.833 943.5,679.167 943.5,733.5C 932.167,733.5 920.833,733.5 909.5,733.5C 909.831,709.328 909.498,685.328 908.5,661.5C 884.833,661.5 861.167,661.5 837.5,661.5C 836.502,685.328 836.169,709.328 836.5,733.5C 825.5,733.5 814.5,733.5 803.5,733.5C 803.5,709.833 803.5,686.167 803.5,662.5C 799.167,662.5 794.833,662.5 790.5,662.5C 782.474,651.127 774.807,639.46 767.5,627.5C 779.5,627.5 791.5,627.5 803.5,627.5C 803.5,608.167 803.5,588.833 803.5,569.5C 805.317,562.852 809.65,558.685 816.5,557C 854.833,556.333 893.167,556.333 931.5,557C 938.195,559.191 942.195,563.691 943.5,570.5 Z"/></g>
<g><path style="opacity:1" fill="#787676" d="M 943.5,570.5 C 944.499,624.997 944.832,679.664 944.5,734.5C 932.5,734.5 920.5,734.5 908.5,734.5C 908.5,710.167 908.5,685.833 908.5,661.5C 909.498,685.328 909.831,709.328 909.5,733.5C 920.833,733.5 932.167,733.5 943.5,733.5C 943.5,679.167 943.5,624.833 943.5,570.5 Z"/></g>
<g><path style="opacity:1" fill="#757273" d="M 255.5,570.5 C 255.5,624.833 255.5,679.167 255.5,733.5C 267.167,733.5 278.833,733.5 290.5,733.5C 278.678,734.495 266.678,734.828 254.5,734.5C 254.168,679.664 254.501,624.997 255.5,570.5 Z"/></g>
<g><path style="opacity:1" fill="#fefffe" d="M 291.5,592.5 C 314.833,592.5 338.167,592.5 361.5,592.5C 361.5,603.833 361.5,615.167 361.5,626.5C 338.167,626.5 314.833,626.5 291.5,626.5C 291.5,615.167 291.5,603.833 291.5,592.5 Z"/></g>
<g><path style="opacity:1" fill="#868484" d="M 754.5,591.5 C 727.005,592.498 699.338,592.831 671.5,592.5C 671.5,627.833 671.5,663.167 671.5,698.5C 670.502,663.004 670.168,627.337 670.5,591.5C 698.5,591.5 726.5,591.5 754.5,591.5 Z"/></g>
<g><path style="opacity:1" fill="#7a7778" d="M 908.5,591.5 C 909.495,602.988 909.828,614.655 909.5,626.5C 885.167,626.5 860.833,626.5 836.5,626.5C 836.5,614.5 836.5,602.5 836.5,590.5C 860.672,590.169 884.672,590.502 908.5,591.5 Z"/></g>
<g><path style="opacity:1" fill="#fefffe" d="M 908.5,591.5 C 908.5,602.833 908.5,614.167 908.5,625.5C 884.833,625.5 861.167,625.5 837.5,625.5C 837.5,614.167 837.5,602.833 837.5,591.5C 861.167,591.5 884.833,591.5 908.5,591.5 Z"/></g>
<g><path style="opacity:1" fill="#d2d1d1" d="M 291.5,592.5 C 291.5,603.833 291.5,615.167 291.5,626.5C 314.833,626.5 338.167,626.5 361.5,626.5C 338.006,627.498 314.339,627.831 290.5,627.5C 290.172,615.655 290.505,603.988 291.5,592.5 Z"/></g>
<g><path style="opacity:1" fill="#9f9d9d" d="M 803.5,569.5 C 803.5,588.833 803.5,608.167 803.5,627.5C 791.5,627.5 779.5,627.5 767.5,627.5C 778.988,626.505 790.655,626.172 802.5,626.5C 802.17,607.326 802.503,588.326 803.5,569.5 Z"/></g>
<g><path style="opacity:1" fill="#231f20" d="M 739.5,661.5 C 721.007,662.497 702.341,662.83 683.5,662.5C 683.5,650.833 683.5,639.167 683.5,627.5C 694.838,627.333 706.172,627.5 717.5,628C 725.449,638.779 732.782,649.945 739.5,661.5 Z"/></g>
<g><path style="opacity:1" fill="#908e8e" d="M 739.5,661.5 C 740.043,661.56 740.376,661.893 740.5,662.5C 721.338,663.828 702.338,663.828 683.5,662.5C 702.341,662.83 721.007,662.497 739.5,661.5 Z"/></g>
<g><path style="opacity:1" fill="#848182" d="M 480.5,663.5 C 504.328,662.502 528.328,662.169 552.5,662.5C 552.5,686.167 552.5,709.833 552.5,733.5C 564.167,733.5 575.833,733.5 587.5,733.5C 575.678,734.495 563.678,734.828 551.5,734.5C 551.5,710.833 551.5,687.167 551.5,663.5C 527.833,663.5 504.167,663.5 480.5,663.5 Z"/></g>
<g><path style="opacity:1" fill="#7e7c7c" d="M 837.5,661.5 C 837.5,685.833 837.5,710.167 837.5,734.5C 825.833,734.5 814.167,734.5 802.5,734.5C 802.5,710.833 802.5,687.167 802.5,663.5C 798.298,663.817 794.298,663.483 790.5,662.5C 794.833,662.5 799.167,662.5 803.5,662.5C 803.5,686.167 803.5,709.833 803.5,733.5C 814.5,733.5 825.5,733.5 836.5,733.5C 836.169,709.328 836.502,685.328 837.5,661.5 Z"/></g>
<g><path style="opacity:1" fill="#282425" d="M 270.5,768.5 C 280.699,766.375 289.199,769.042 296,776.5C 297.707,778.909 298.54,781.575 298.5,784.5C 296.396,784.799 294.396,784.466 292.5,783.5C 288.887,775.16 282.554,771.993 273.5,774C 263.032,779.784 259.198,788.617 262,800.5C 266.709,812.963 275.209,816.463 287.5,811C 291.822,807.523 293.822,803.023 293.5,797.5C 288.5,797.5 283.5,797.5 278.5,797.5C 278.5,795.833 278.5,794.167 278.5,792.5C 285.5,792.5 292.5,792.5 299.5,792.5C 299.5,800.833 299.5,809.167 299.5,817.5C 298.127,817.657 296.793,817.49 295.5,817C 294.853,815.391 294.02,813.891 293,812.5C 286.515,818.114 279.015,819.948 270.5,818C 257.751,811.327 252.918,800.827 256,786.5C 257.767,777.936 262.6,771.936 270.5,768.5 Z"/></g>
<g><path style="opacity:1" fill="#252122" d="M 461.5,816.5 C 459.393,817.468 457.059,817.802 454.5,817.5C 453.996,811.782 453.162,806.116 452,800.5C 450.871,798.859 449.371,797.859 447.5,797.5C 441.355,796.51 435.022,796.177 428.5,796.5C 428.5,803.5 428.5,810.5 428.5,817.5C 426.5,817.5 424.5,817.5 422.5,817.5C 422.5,801.167 422.5,784.833 422.5,768.5C 431.839,768.334 441.173,768.5 450.5,769C 459.27,771.702 462.437,777.536 460,786.5C 458.5,790 456,792.5 452.5,794C 456,794.833 458.167,797 459,800.5C 459.513,805.93 460.347,811.264 461.5,816.5 Z"/></g>
<g><path style="opacity:1" fill="#292526" d="M 595.5,768.5 C 616.572,767.406 626.406,777.406 625,798.5C 619.847,816.66 608.347,822.494 590.5,816C 579.597,807.214 576.43,796.047 581,782.5C 583.774,775.557 588.607,770.89 595.5,768.5 Z"/></g>
<g><path style="opacity:1" fill="#252122" d="M 745.5,769.5 C 747.5,769.5 749.5,769.5 751.5,769.5C 751.082,781.895 751.582,794.228 753,806.5C 755.343,811.671 759.343,814.005 765,813.5C 771.914,813.592 776.247,810.259 778,803.5C 778.5,792.172 778.667,780.838 778.5,769.5C 780.5,769.5 782.5,769.5 784.5,769.5C 784.944,782.907 784.444,796.24 783,809.5C 778.901,816.596 772.734,819.596 764.5,818.5C 755.12,819.396 748.953,815.396 746,806.5C 745.5,794.171 745.333,781.838 745.5,769.5 Z"/></g>
<g><path style="opacity:1" fill="#282425" d="M 932.5,797.5 C 926.167,797.5 919.833,797.5 913.5,797.5C 913.5,804.167 913.5,810.833 913.5,817.5C 911.5,817.5 909.5,817.5 907.5,817.5C 907.5,801.5 907.5,785.5 907.5,769.5C 916.506,769.334 925.506,769.5 934.5,770C 938.499,770.668 941.332,772.835 943,776.5C 943.667,780.833 943.667,785.167 943,789.5C 941.256,794.457 937.756,797.124 932.5,797.5 Z"/></g>
<g><path style="opacity:1" fill="#b6b5b5" d="M 448.5,774.5 C 442.167,774.5 435.833,774.5 429.5,774.5C 429.5,779.833 429.5,785.167 429.5,790.5C 434.833,790.5 440.167,790.5 445.5,790.5C 440.025,791.489 434.358,791.822 428.5,791.5C 428.5,785.5 428.5,779.5 428.5,773.5C 435.354,773.176 442.021,773.509 448.5,774.5 Z"/></g>
<g><path style="opacity:1" fill="#fdfdfd" d="M 448.5,774.5 C 450.371,774.859 451.871,775.859 453,777.5C 453.956,781.572 453.456,785.405 451.5,789C 449.655,790.128 447.655,790.628 445.5,790.5C 440.167,790.5 434.833,790.5 429.5,790.5C 429.5,785.167 429.5,779.833 429.5,774.5C 435.833,774.5 442.167,774.5 448.5,774.5 Z"/></g>
<g><path style="opacity:1" fill="#fbfbfb" d="M 597.5,773.5 C 607.447,772.297 614.281,776.297 618,785.5C 619.334,793.2 618.334,800.533 615,807.5C 601.893,817.565 592.227,814.898 586,799.5C 583.63,787.919 587.463,779.252 597.5,773.5 Z"/></g>
<g><path style="opacity:1" fill="#fbfbfb" d="M 914.5,774.5 C 920.925,774.13 927.258,774.63 933.5,776C 937.843,779.693 938.676,784.193 936,789.5C 935.25,790.126 934.416,790.626 933.5,791C 927.258,792.37 920.925,792.87 914.5,792.5C 914.5,786.5 914.5,780.5 914.5,774.5 Z"/></g>
<g><path style="opacity:1" fill="#cac9c9" d="M 447.5,797.5 C 441.5,797.5 435.5,797.5 429.5,797.5C 429.824,804.354 429.491,811.021 428.5,817.5C 428.5,810.5 428.5,803.5 428.5,796.5C 435.022,796.177 441.355,796.51 447.5,797.5 Z"/></g>
<g><path style="opacity:1" fill="#6a6768" d="M 932.5,797.5 C 926.69,798.49 920.69,798.823 914.5,798.5C 914.823,805.022 914.49,811.355 913.5,817.5C 913.5,810.833 913.5,804.167 913.5,797.5C 919.833,797.5 926.167,797.5 932.5,797.5 Z"/></g>
<g><path style="opacity:1" fill="#a5a4a4" d="M 461.5,816.5 C 462.043,816.56 462.376,816.893 462.5,817.5C 459.691,818.8 457.024,818.8 454.5,817.5C 457.059,817.802 459.393,817.468 461.5,816.5 Z"/></g>
</svg>
