<?xml version="1.0" encoding="UTF-8"?>
<!DOCTYPE svg PUBLIC "-//W3C//DTD SVG 1.1//EN" "http://www.w3.org/Graphics/SVG/1.1/DTD/svg11.dtd">
<svg xmlns="http://www.w3.org/2000/svg" version="1.1" width="96" height="180" style="shape-rendering:geometricPrecision; text-rendering:geometricPrecision; image-rendering:optimizeQuality; fill-rule:evenodd; clip-rule:evenodd" xmlns:xlink="http://www.w3.org/1999/xlink">
<g><path style="opacity:0.214" fill="#fffee2" d="M 21.5,-0.5 C 21.8333,-0.5 22.1667,-0.5 22.5,-0.5C 23.299,2.42994 23.6323,5.42994 23.5,8.5C 22.8354,6.6309 22.1687,4.6309 21.5,2.5C 20.7025,2.95689 20.3691,3.62356 20.5,4.5C 20.1667,4.5 19.8333,4.5 19.5,4.5C 18.791,3.59603 17.791,3.26269 16.5,3.5C 15.5,3.5 14.5,3.5 13.5,3.5C 16.0675,2.04408 18.7342,0.710751 21.5,-0.5 Z"/></g>
<g><path style="opacity:1" fill="#fff16c" d="M 30.5,-0.5 C 30.8333,-0.5 31.1667,-0.5 31.5,-0.5C 31.5,0.5 31.5,1.5 31.5,2.5C 33.5273,2.66212 35.5273,2.49546 37.5,2C 38.2524,1.32924 38.5858,0.495904 38.5,-0.5C 39.1667,-0.5 39.8333,-0.5 40.5,-0.5C 42.0781,1.37473 41.7448,2.70806 39.5,3.5C 38.6888,7.6604 38.6888,11.9937 39.5,16.5C 39.5,17.1667 39.5,17.8333 39.5,18.5C 38.0387,19.6857 36.7054,19.6857 35.5,18.5C 36.1667,18.5 36.5,18.1667 36.5,17.5C 37.4849,13.3656 37.8182,9.03225 37.5,4.5C 35.4727,4.66212 33.4727,4.49546 31.5,4C 30.6198,2.64387 30.2865,1.14387 30.5,-0.5 Z"/></g>
<g><path style="opacity:0.133" fill="#fffedc" d="M 31.5,-0.5 C 32.1667,-0.5 32.8333,-0.5 33.5,-0.5C 34.7399,1.98452 35.7399,1.98452 36.5,-0.5C 37.1667,-0.5 37.8333,-0.5 38.5,-0.5C 38.5858,0.495904 38.2524,1.32924 37.5,2C 35.5273,2.49546 33.5273,2.66212 31.5,2.5C 31.5,1.5 31.5,0.5 31.5,-0.5 Z"/></g>
<g><path style="opacity:1" fill="#ffee5c" d="M 16.5,3.5 C 17.791,3.26269 18.791,3.59603 19.5,4.5C 18.2452,7.64654 16.5785,7.97987 14.5,5.5C 15.2427,4.81815 15.9094,4.15149 16.5,3.5 Z"/></g>
<g><path style="opacity:0.502" fill="#faf6cb" d="M 29.5,-0.5 C 29.8333,-0.5 30.1667,-0.5 30.5,-0.5C 30.2865,1.14387 30.6198,2.64387 31.5,4C 33.4727,4.49546 35.4727,4.66212 37.5,4.5C 37.8182,9.03225 37.4849,13.3656 36.5,17.5C 36.9227,15.2188 36.256,13.5521 34.5,12.5C 34.7529,10.1727 34.0863,8.17267 32.5,6.5C 30.8974,7.79335 29.2307,8.79335 27.5,9.5C 25.901,9.76781 24.5676,9.43448 23.5,8.5C 26.3928,8.36785 28.7261,7.20118 30.5,5C 28.5722,3.31949 28.2388,1.48616 29.5,-0.5 Z"/></g>
<g><path style="opacity:0.039" fill="#fff5d6" d="M 53.5,3.5 C 48.5796,1.41177 46.5796,3.07844 47.5,8.5C 44.8333,8.5 42.1667,8.5 39.5,8.5C 39.5,7.16667 39.5,5.83333 39.5,4.5C 40.404,5.20895 40.7373,6.20895 40.5,7.5C 42.5,7.5 44.5,7.5 46.5,7.5C 46.1043,4.95557 46.771,2.7889 48.5,1C 49.9961,0.49256 51.1627,0.99256 52,2.5C 53.1068,1.2881 53.6068,1.62143 53.5,3.5 Z"/></g>
<g><path style="opacity:1" fill="#fcfbb0" d="M 34.5,12.5 C 33.6993,14.0418 33.366,15.7085 33.5,17.5C 31.631,15.3647 30.9644,12.6981 31.5,9.5C 30.1667,9.5 28.8333,9.5 27.5,9.5C 29.2307,8.79335 30.8974,7.79335 32.5,6.5C 34.0863,8.17267 34.7529,10.1727 34.5,12.5 Z"/></g>
<g><path style="opacity:1" fill="#fadc35" d="M 53.5,3.5 C 51.3175,6.9479 50.9842,10.6146 52.5,14.5C 50.9519,14.8212 50.2852,15.8212 50.5,17.5C 49.8444,18.2778 49.0111,18.9444 48,19.5C 46.2341,18.7665 44.4008,18.4332 42.5,18.5C 42.5,15.5 42.5,12.5 42.5,9.5C 44.4147,9.78448 46.0813,9.45115 47.5,8.5C 46.5796,3.07844 48.5796,1.41177 53.5,3.5 Z"/></g>
<g><path style="opacity:0.486" fill="#fef6ba" d="M 13.5,3.5 C 14.5,3.5 15.5,3.5 16.5,3.5C 15.9094,4.15149 15.2427,4.81815 14.5,5.5C 16.5785,7.97987 18.2452,7.64654 19.5,4.5C 19.8333,4.5 20.1667,4.5 20.5,4.5C 20.6204,6.19863 20.9537,7.86529 21.5,9.5C 21.1667,10.1667 20.8333,10.8333 20.5,11.5C 19.6143,10.675 19.281,9.67504 19.5,8.5C 18.209,8.26269 17.209,8.59603 16.5,9.5C 15.6618,9.84171 15.3284,10.5084 15.5,11.5C 14.5,12.1667 13.5,12.8333 12.5,13.5C 10.6322,14.6736 9.63216,14.0069 9.5,11.5C 11.2741,12.881 12.7741,12.5477 14,10.5C 14.4294,8.33132 13.9294,6.33132 12.5,4.5C 12.6236,3.89333 12.9569,3.55999 13.5,3.5 Z"/></g>
<g><path style="opacity:1" fill="#f7f18b" d="M 23.5,8.5 C 24.5676,9.43448 25.901,9.76781 27.5,9.5C 27.7678,11.099 27.4345,12.4324 26.5,13.5C 25.8386,14.7175 25.1719,16.0508 24.5,17.5C 22.8888,16.6798 22.2222,15.3464 22.5,13.5C 19.6824,13.3426 17.6824,12.0092 16.5,9.5C 17.209,8.59603 18.209,8.26269 19.5,8.5C 19.281,9.67504 19.6143,10.675 20.5,11.5C 20.8333,10.8333 21.1667,10.1667 21.5,9.5C 20.9537,7.86529 20.6204,6.19863 20.5,4.5C 20.3691,3.62356 20.7025,2.95689 21.5,2.5C 22.1687,4.6309 22.8354,6.6309 23.5,8.5 Z"/></g>
<g><path style="opacity:0.878" fill="#f6f4a8" d="M 53.5,3.5 C 55.8447,5.35702 56.178,7.69036 54.5,10.5C 53.4808,12.5405 53.4808,14.5405 54.5,16.5C 55.1757,15.3984 55.8423,14.3984 56.5,13.5C 56.4326,14.9587 56.7659,16.2921 57.5,17.5C 56.8333,18.8333 56.1667,20.1667 55.5,21.5C 52.9791,19.9696 51.9791,17.6363 52.5,14.5C 50.9842,10.6146 51.3175,6.9479 53.5,3.5 Z"/></g>
<g><path style="opacity:0.271" fill="#fffad4" d="M 63.5,19.5 C 63.8782,17.079 64.5448,14.7457 65.5,12.5C 65.5,11.1667 65.5,9.83333 65.5,8.5C 64.1667,8.5 62.8333,8.5 61.5,8.5C 61.5792,9.93047 61.2458,11.2638 60.5,12.5C 58.9884,13.0883 57.6551,13.4216 56.5,13.5C 55.8423,14.3984 55.1757,15.3984 54.5,16.5C 53.4808,14.5405 53.4808,12.5405 54.5,10.5C 56.1123,11.4523 57.6123,11.7856 59,11.5C 60.4025,7.86418 62.9025,6.86418 66.5,8.5C 66.9312,9.29349 67.2645,10.1268 67.5,11C 66.8133,14.2713 65.48,17.1046 63.5,19.5 Z"/></g>
<g><path style="opacity:1" fill="#f9df3b" d="M 65.5,12.5 C 64.2794,13.0283 63.1127,13.695 62,14.5C 61.1146,17 59.9479,19.3333 58.5,21.5C 57.5713,20.3112 57.238,18.9778 57.5,17.5C 56.7659,16.2921 56.4326,14.9587 56.5,13.5C 57.6551,13.4216 58.9884,13.0883 60.5,12.5C 61.2458,11.2638 61.5792,9.93047 61.5,8.5C 62.8333,8.5 64.1667,8.5 65.5,8.5C 65.5,9.83333 65.5,11.1667 65.5,12.5 Z"/></g>
<g><path style="opacity:1" fill="#fefdb8" d="M 39.5,3.5 C 39.5,3.83333 39.5,4.16667 39.5,4.5C 39.5,5.83333 39.5,7.16667 39.5,8.5C 42.1667,8.5 44.8333,8.5 47.5,8.5C 46.0813,9.45115 44.4147,9.78448 42.5,9.5C 41.6829,11.9686 41.1829,14.6353 41,17.5C 40.6174,16.944 40.1174,16.6107 39.5,16.5C 38.6888,11.9937 38.6888,7.6604 39.5,3.5 Z"/></g>
<g><path style="opacity:0.145" fill="#fff2d1" d="M 3.5,12.5 C 3.83333,12.5 4.16667,12.5 4.5,12.5C 5.47197,15.1316 6.8053,17.4649 8.5,19.5C 8.5,20.5 8.5,21.5 8.5,22.5C 6.08752,19.6323 4.42085,16.299 3.5,12.5 Z"/></g>
<g><path style="opacity:1" fill="#b5a979" d="M 34.5,12.5 C 36.256,13.5521 36.9227,15.2188 36.5,17.5C 36.5,18.1667 36.1667,18.5 35.5,18.5C 34.8333,18.8333 34.1667,19.1667 33.5,19.5C 33.5,18.8333 33.5,18.1667 33.5,17.5C 33.366,15.7085 33.6993,14.0418 34.5,12.5 Z"/></g>
<g><path style="opacity:1" fill="#f1d835" d="M 10.5,19.5 C 9.83333,19.5 9.16667,19.5 8.5,19.5C 6.8053,17.4649 5.47197,15.1316 4.5,12.5C 4.28099,11.325 4.61432,10.325 5.5,9.5C 6.65021,13.1338 8.31687,16.4671 10.5,19.5 Z"/></g>
<g><path style="opacity:1" fill="#fef698" d="M 9.5,11.5 C 9.63216,14.0069 10.6322,14.6736 12.5,13.5C 12.6741,15.861 13.0074,18.1944 13.5,20.5C 12.391,20.4431 11.391,20.1098 10.5,19.5C 8.31687,16.4671 6.65021,13.1338 5.5,9.5C 4.61432,10.325 4.28099,11.325 4.5,12.5C 4.16667,12.5 3.83333,12.5 3.5,12.5C 2.63244,10.5198 3.2991,8.8531 5.5,7.5C 7.52227,8.18886 8.8556,9.52219 9.5,11.5 Z"/></g>
<g><path style="opacity:1" fill="#fad137" d="M 27.5,9.5 C 28.8333,9.5 30.1667,9.5 31.5,9.5C 30.9644,12.6981 31.631,15.3647 33.5,17.5C 33.5,18.1667 33.5,18.8333 33.5,19.5C 30.4299,19.3677 27.4299,19.701 24.5,20.5C 25.4451,19.0072 26.4451,17.5072 27.5,16C 27.2568,15.0979 26.9234,14.2646 26.5,13.5C 27.4345,12.4324 27.7678,11.099 27.5,9.5 Z"/></g>
<g><path style="opacity:1" fill="#f1c42a" d="M 15.5,11.5 C 17.5987,13.9938 19.932,16.3271 22.5,18.5C 21.8728,19.4168 21.5394,20.4168 21.5,21.5C 18.7628,21.5987 16.0961,21.2653 13.5,20.5C 13.0074,18.1944 12.6741,15.861 12.5,13.5C 13.5,12.8333 14.5,12.1667 15.5,11.5 Z"/></g>
<g><path style="opacity:1" fill="#fcf6d2" d="M 35.5,18.5 C 36.7054,19.6857 38.0387,19.6857 39.5,18.5C 39.8151,21.2108 39.1484,23.5441 37.5,25.5C 36.8333,25.5 36.1667,25.5 35.5,25.5C 34.0813,24.5489 32.4147,24.2155 30.5,24.5C 30.5,23.1667 30.5,21.8333 30.5,20.5C 31.791,20.7373 32.791,20.404 33.5,19.5C 34.1667,19.1667 34.8333,18.8333 35.5,18.5 Z"/></g>
<g><path style="opacity:1" fill="#eadc5d" d="M 65.5,12.5 C 64.5448,14.7457 63.8782,17.079 63.5,19.5C 61.4384,21.3613 60.1051,23.6947 59.5,26.5C 59.5,25.5 59.5,24.5 59.5,23.5C 58.0695,23.4208 56.7362,23.7542 55.5,24.5C 54.4376,23.5754 54.4376,22.5754 55.5,21.5C 56.1667,20.1667 56.8333,18.8333 57.5,17.5C 57.238,18.9778 57.5713,20.3112 58.5,21.5C 59.9479,19.3333 61.1146,17 62,14.5C 63.1127,13.695 64.2794,13.0283 65.5,12.5 Z"/></g>
<g><path style="opacity:1" fill="#f7f09c" d="M 33.5,19.5 C 32.791,20.404 31.791,20.7373 30.5,20.5C 30.5,21.8333 30.5,23.1667 30.5,24.5C 32.4147,24.2155 34.0813,24.5489 35.5,25.5C 32.5,25.5 29.5,25.5 26.5,25.5C 25.4975,23.9891 24.8308,22.3224 24.5,20.5C 27.4299,19.701 30.4299,19.3677 33.5,19.5 Z"/></g>
<g><path style="opacity:1" fill="#fcce18" d="M 50.5,20.5 C 51.209,21.404 52.209,21.7373 53.5,21.5C 53.7852,23.288 53.4519,24.9547 52.5,26.5C 51.3345,24.2612 50.0012,24.2612 48.5,26.5C 46.5648,25.8505 44.5648,25.5172 42.5,25.5C 43.1834,23.8235 44.5168,23.1568 46.5,23.5C 46.5,22.5 46.5,21.5 46.5,20.5C 47.8333,20.5 49.1667,20.5 50.5,20.5 Z"/></g>
<g><path style="opacity:1" fill="#f7ef7c" d="M 42.5,9.5 C 42.5,12.5 42.5,15.5 42.5,18.5C 44.4008,18.4332 46.2341,18.7665 48,19.5C 49.0111,18.9444 49.8444,18.2778 50.5,17.5C 50.5,18.5 50.5,19.5 50.5,20.5C 49.1667,20.5 47.8333,20.5 46.5,20.5C 46.5,21.5 46.5,22.5 46.5,23.5C 44.5168,23.1568 43.1834,23.8235 42.5,25.5C 40.8333,25.5 39.1667,25.5 37.5,25.5C 39.1484,23.5441 39.8151,21.2108 39.5,18.5C 39.5,17.8333 39.5,17.1667 39.5,16.5C 40.1174,16.6107 40.6174,16.944 41,17.5C 41.1829,14.6353 41.6829,11.9686 42.5,9.5 Z"/></g>
<g><path style="opacity:1" fill="#eee65f" d="M 16.5,9.5 C 17.6824,12.0092 19.6824,13.3426 22.5,13.5C 22.2222,15.3464 22.8888,16.6798 24.5,17.5C 25.1719,16.0508 25.8386,14.7175 26.5,13.5C 26.9234,14.2646 27.2568,15.0979 27.5,16C 26.4451,17.5072 25.4451,19.0072 24.5,20.5C 24.8308,22.3224 25.4975,23.9891 26.5,25.5C 26.5,25.8333 26.5,26.1667 26.5,26.5C 23.8333,26.8333 21.1667,27.1667 18.5,27.5C 19.209,26.596 20.209,26.2627 21.5,26.5C 21.8222,24.5248 21.8222,22.8582 21.5,21.5C 21.5394,20.4168 21.8728,19.4168 22.5,18.5C 19.932,16.3271 17.5987,13.9938 15.5,11.5C 15.3284,10.5084 15.6618,9.84171 16.5,9.5 Z"/></g>
<g><path style="opacity:1" fill="#fad942" d="M 10.5,19.5 C 11.391,20.1098 12.391,20.4431 13.5,20.5C 16.0961,21.2653 18.7628,21.5987 21.5,21.5C 21.8222,22.8582 21.8222,24.5248 21.5,26.5C 20.209,26.2627 19.209,26.596 18.5,27.5C 17.5,27.5 16.5,27.5 15.5,27.5C 15.7589,24.5203 14.4256,22.687 11.5,22C 10.7476,21.3292 10.4142,20.4959 10.5,19.5 Z"/></g>
<g><path style="opacity:1" fill="#9f8a49" d="M 26.5,26.5 C 26.5,26.1667 26.5,25.8333 26.5,25.5C 29.5,25.5 32.5,25.5 35.5,25.5C 36.1667,25.5 36.8333,25.5 37.5,25.5C 39.1667,25.5 40.8333,25.5 42.5,25.5C 44.5648,25.5172 46.5648,25.8505 48.5,26.5C 49.4916,26.3284 50.1583,26.6618 50.5,27.5C 44.1961,26.7403 37.8627,26.407 31.5,26.5C 29.8333,26.5 28.1667,26.5 26.5,26.5 Z"/></g>
<g><path style="opacity:1" fill="#dec146" d="M 52.5,14.5 C 51.9791,17.6363 52.9791,19.9696 55.5,21.5C 54.4376,22.5754 54.4376,23.5754 55.5,24.5C 56.7362,23.7542 58.0695,23.4208 59.5,23.5C 59.5,24.5 59.5,25.5 59.5,26.5C 58.1389,29.1945 56.1389,31.1945 53.5,32.5C 50.8333,32.5 48.1667,32.5 45.5,32.5C 47.5,31.8333 49.5,31.1667 51.5,30.5C 52.675,30.719 53.675,30.3857 54.5,29.5C 53.2342,28.6376 51.9008,27.9709 50.5,27.5C 50.1583,26.6618 49.4916,26.3284 48.5,26.5C 50.0012,24.2612 51.3345,24.2612 52.5,26.5C 53.4519,24.9547 53.7852,23.288 53.5,21.5C 52.209,21.7373 51.209,21.404 50.5,20.5C 50.5,19.5 50.5,18.5 50.5,17.5C 50.2852,15.8212 50.9519,14.8212 52.5,14.5 Z"/></g>
<g><path style="opacity:0.22" fill="#fdf9c4" d="M 63.5,19.5 C 62.4521,23.366 60.9521,27.0326 59,30.5C 57.4157,31.8613 55.5824,32.528 53.5,32.5C 56.1389,31.1945 58.1389,29.1945 59.5,26.5C 60.1051,23.6947 61.4384,21.3613 63.5,19.5 Z"/></g>
<g><path style="opacity:1" fill="#deb83f" d="M 8.5,19.5 C 9.16667,19.5 9.83333,19.5 10.5,19.5C 10.4142,20.4959 10.7476,21.3292 11.5,22C 14.4256,22.687 15.7589,24.5203 15.5,27.5C 16.5,27.5 17.5,27.5 18.5,27.5C 16.7809,28.0221 15.4475,29.0221 14.5,30.5C 12.0134,28.1911 10.0134,25.5244 8.5,22.5C 8.5,21.5 8.5,20.5 8.5,19.5 Z"/></g>
<g><path style="opacity:1" fill="#110e19" d="M 31.5,26.5 C 37.8627,26.407 44.1961,26.7403 50.5,27.5C 51.9008,27.9709 53.2342,28.6376 54.5,29.5C 53.675,30.3857 52.675,30.719 51.5,30.5C 48.7276,30.78 46.2276,30.1134 44,28.5C 43.5172,29.448 43.3505,30.448 43.5,31.5C 40.9122,31.4567 38.7456,30.4567 37,28.5C 35.3333,28.5 33.6667,28.5 32,28.5C 31.5172,29.448 31.3505,30.448 31.5,31.5C 30.1667,31.5 28.8333,31.5 27.5,31.5C 27.2786,30.2652 26.6119,29.2652 25.5,28.5C 27.6309,27.8313 29.6309,27.1646 31.5,26.5 Z"/></g>
<g><path style="opacity:1" fill="#161516" d="M 26.5,26.5 C 28.1667,26.5 29.8333,26.5 31.5,26.5C 29.6309,27.1646 27.6309,27.8313 25.5,28.5C 26.6119,29.2652 27.2786,30.2652 27.5,31.5C 25.8333,31.5 24.1667,31.5 22.5,31.5C 19.9039,30.7347 17.2372,30.4013 14.5,30.5C 15.4475,29.0221 16.7809,28.0221 18.5,27.5C 21.1667,27.1667 23.8333,26.8333 26.5,26.5 Z"/></g>
<g><path style="opacity:1" fill="#211e19" d="M 51.5,30.5 C 49.5,31.1667 47.5,31.8333 45.5,32.5C 37.6484,32.8254 29.9818,32.492 22.5,31.5C 24.1667,31.5 25.8333,31.5 27.5,31.5C 28.8333,31.5 30.1667,31.5 31.5,31.5C 31.3505,30.448 31.5172,29.448 32,28.5C 33.6667,28.5 35.3333,28.5 37,28.5C 38.7456,30.4567 40.9122,31.4567 43.5,31.5C 43.3505,30.448 43.5172,29.448 44,28.5C 46.2276,30.1134 48.7276,30.78 51.5,30.5 Z"/></g>
<g><path style="opacity:1" fill="#d7d183" d="M 8.5,22.5 C 10.0134,25.5244 12.0134,28.1911 14.5,30.5C 17.2372,30.4013 19.9039,30.7347 22.5,31.5C 29.9818,32.492 37.6484,32.8254 45.5,32.5C 48.1667,32.5 50.8333,32.5 53.5,32.5C 51.7354,33.4614 49.7354,33.7947 47.5,33.5C 38.5,33.5 29.5,33.5 20.5,33.5C 13.0035,33.6708 9.00347,30.0041 8.5,22.5 Z"/></g>
<g><path style="opacity:0.996" fill="#fdfded" d="M 20.5,33.5 C 29.5,33.5 38.5,33.5 47.5,33.5C 46.0484,34.3019 44.3817,34.8019 42.5,35C 42.8333,35.3333 43.1667,35.6667 43.5,36C 47.0252,36.1787 50.3586,36.6787 53.5,37.5C 38.324,37.8294 23.324,37.4961 8.5,36.5C 13.8437,36.666 19.1771,36.4994 24.5,36C 24.8333,35.6667 25.1667,35.3333 25.5,35C 23.6183,34.8019 21.9516,34.3019 20.5,33.5 Z"/></g>
<g><path style="opacity:0.655" fill="#faf2ae" d="M -0.5,36.5 C 2.5,36.5 5.5,36.5 8.5,36.5C 23.324,37.4961 38.324,37.8294 53.5,37.5C 57.4595,37.2208 61.7928,36.8874 66.5,36.5C 68.0377,36.4534 69.0377,37.1201 69.5,38.5C 60.9832,38.1739 52.6499,38.5073 44.5,39.5C 36.1667,39.5 27.8333,39.5 19.5,39.5C 16.1667,39.5 12.8333,39.5 9.5,39.5C 6.7131,38.5233 3.7131,38.19 0.5,38.5C 0.829616,54.3422 0.496282,70.0089 -0.5,85.5C -0.5,69.1667 -0.5,52.8333 -0.5,36.5 Z"/></g>
<g><path style="opacity:1" fill="#484224" d="M 19.5,40.5 C 19.5,40.1667 19.5,39.8333 19.5,39.5C 27.8333,39.5 36.1667,39.5 44.5,39.5C 51.8333,39.5 59.1667,39.5 66.5,39.5C 66.8235,46.0221 66.4902,52.3554 65.5,58.5C 65.5,57.8333 65.5,57.1667 65.5,56.5C 66.0894,52.0293 65.4228,48.0293 63.5,44.5C 63.5,44.1667 63.5,43.8333 63.5,43.5C 64.0431,43.44 64.3764,43.1067 64.5,42.5C 61.2317,41.513 57.8984,41.1796 54.5,41.5C 53.4324,40.5655 52.099,40.2322 50.5,40.5C 43.8333,40.5 37.1667,40.5 30.5,40.5C 26.8333,40.5 23.1667,40.5 19.5,40.5 Z"/></g>
<g><path style="opacity:1" fill="#ce442e" d="M 54.5,41.5 C 57.8984,41.1796 61.2317,41.513 64.5,42.5C 64.3764,43.1067 64.0431,43.44 63.5,43.5C 59.8333,42.1667 56.1667,42.1667 52.5,43.5C 52.1667,43.5 51.8333,43.5 51.5,43.5C 51.8212,41.9519 52.8212,41.2852 54.5,41.5 Z"/></g>
<g><path style="opacity:1" fill="#f8e7a2" d="M 44.5,39.5 C 52.6499,38.5073 60.9832,38.1739 69.5,38.5C 70.4788,46.6698 70.4788,55.0031 69.5,63.5C 68.8333,63.1667 68.1667,62.8333 67.5,62.5C 67.8254,54.6484 67.492,46.9818 66.5,39.5C 59.1667,39.5 51.8333,39.5 44.5,39.5 Z"/></g>
<g><path style="opacity:1" fill="#f7301c" d="M 63.5,43.5 C 63.5,43.8333 63.5,44.1667 63.5,44.5C 62.1667,45.5 60.8333,46.5 59.5,47.5C 58.4632,42.499 57.1299,42.499 55.5,47.5C 54.5,46.1667 53.5,44.8333 52.5,43.5C 56.1667,42.1667 59.8333,42.1667 63.5,43.5 Z"/></g>
<g><path style="opacity:1" fill="#2073b4" d="M 13.5,44.5 C 13.9321,45.7095 14.5987,46.7095 15.5,47.5C 18.2316,50.5577 20.8982,53.5577 23.5,56.5C 23.5569,57.609 23.8902,58.609 24.5,59.5C 23.1667,60.1667 22.1667,61.1667 21.5,62.5C 19.8333,61.1667 18.1667,59.8333 16.5,58.5C 13.7639,54.0431 10.7639,49.7097 7.5,45.5C 6.85917,44.5178 6.19251,43.5178 5.5,42.5C 6.5,42.1667 7.5,41.8333 8.5,41.5C 10.6926,41.7705 12.3593,42.7705 13.5,44.5 Z"/></g>
<g><path style="opacity:1" fill="#121018" d="M 30.5,40.5 C 37.1667,40.5 43.8333,40.5 50.5,40.5C 49.7659,41.7079 49.4326,43.0413 49.5,44.5C 47.2355,44.4406 46.9022,45.2739 48.5,47C 47.5705,48.0769 46.9038,49.2436 46.5,50.5C 44.1771,49.2499 41.8437,47.9166 39.5,46.5C 39.3508,42.8767 38.1842,42.5434 36,45.5C 34.4192,43.153 33.0859,43.153 32,45.5C 30.9914,43.9751 30.4914,42.3084 30.5,40.5 Z"/></g>
<g><path style="opacity:1" fill="#60514a" d="M 50.5,40.5 C 52.099,40.2322 53.4324,40.5655 54.5,41.5C 52.8212,41.2852 51.8212,41.9519 51.5,43.5C 50.5386,45.2646 50.2053,47.2646 50.5,49.5C 50.5,49.8333 50.5,50.1667 50.5,50.5C 50.1984,53.0593 50.5318,55.3926 51.5,57.5C 51.5,58.1667 51.1667,58.5 50.5,58.5C 50.1667,58.5 49.8333,58.5 49.5,58.5C 49.5,53.8333 49.5,49.1667 49.5,44.5C 49.4326,43.0413 49.7659,41.7079 50.5,40.5 Z"/></g>
<g><path style="opacity:1" fill="#14131b" d="M 12.5,40.5 C 14.8333,40.5 17.1667,40.5 19.5,40.5C 23.1667,40.5 26.8333,40.5 30.5,40.5C 30.4914,42.3084 30.9914,43.9751 32,45.5C 33.0859,43.153 34.4192,43.153 36,45.5C 38.1842,42.5434 39.3508,42.8767 39.5,46.5C 38.5244,47.8149 37.5244,49.1482 36.5,50.5C 35.0316,48.6671 33.3649,48.3338 31.5,49.5C 32.5,50.1667 33.5,50.8333 34.5,51.5C 34.3764,52.1067 34.0431,52.44 33.5,52.5C 32.7611,52.369 32.0944,52.5357 31.5,53C 32.6956,53.6543 32.6956,54.1543 31.5,54.5C 28.0953,52.7625 25.762,50.0958 24.5,46.5C 23.8933,46.6236 23.56,46.9569 23.5,47.5C 20.9194,47.9961 18.2527,47.9961 15.5,47.5C 14.5987,46.7095 13.9321,45.7095 13.5,44.5C 13.1667,43.1667 12.8333,41.8333 12.5,40.5 Z"/></g>
<g><path style="opacity:1" fill="#5d7fab" d="M 51.5,43.5 C 51.8333,43.5 52.1667,43.5 52.5,43.5C 53.5,44.8333 54.5,46.1667 55.5,47.5C 55.5,47.8333 55.5,48.1667 55.5,48.5C 53.7085,48.366 52.0418,48.6993 50.5,49.5C 50.2053,47.2646 50.5386,45.2646 51.5,43.5 Z"/></g>
<g><path style="opacity:1" fill="#3d456c" d="M 63.5,44.5 C 65.4228,48.0293 66.0894,52.0293 65.5,56.5C 64.391,56.4431 63.391,56.1098 62.5,55.5C 62.5,54.8333 62.5,54.1667 62.5,53.5C 63.2891,53.2172 63.9558,52.7172 64.5,52C 63.3095,46.2802 61.9761,46.4469 60.5,52.5C 59.596,51.791 59.2627,50.791 59.5,49.5C 59.5,48.8333 59.5,48.1667 59.5,47.5C 60.8333,46.5 62.1667,45.5 63.5,44.5 Z"/></g>
<g><path style="opacity:1" fill="#18181a" d="M 23.5,47.5 C 22.2882,50.5316 22.2882,53.5316 23.5,56.5C 20.8982,53.5577 18.2316,50.5577 15.5,47.5C 18.2527,47.9961 20.9194,47.9961 23.5,47.5 Z"/></g>
<g><path style="opacity:1" fill="#ef9645" d="M 59.5,47.5 C 59.5,48.1667 59.5,48.8333 59.5,49.5C 59.1667,49.5 58.8333,49.5 58.5,49.5C 57.8333,49.5 57.1667,49.5 56.5,49.5C 56.5,48.8333 56.1667,48.5 55.5,48.5C 55.5,48.1667 55.5,47.8333 55.5,47.5C 57.1299,42.499 58.4632,42.499 59.5,47.5 Z"/></g>
<g><path style="opacity:1" fill="#e3d577" d="M 55.5,48.5 C 56.1667,48.5 56.5,48.8333 56.5,49.5C 55.8333,49.5 55.5,49.8333 55.5,50.5C 53.8333,50.5 52.1667,50.5 50.5,50.5C 50.5,50.1667 50.5,49.8333 50.5,49.5C 52.0418,48.6993 53.7085,48.366 55.5,48.5 Z"/></g>
<g><path style="opacity:1" fill="#c5a691" d="M 55.5,50.5 C 55.5,49.8333 55.8333,49.5 56.5,49.5C 57.1667,49.5 57.8333,49.5 58.5,49.5C 58.7148,51.1788 58.0481,52.1788 56.5,52.5C 56.6716,51.5084 56.3382,50.8417 55.5,50.5 Z"/></g>
<g><path style="opacity:1" fill="#696c59" d="M 62.5,53.5 C 61.5084,53.6716 60.8417,53.3382 60.5,52.5C 61.9761,46.4469 63.3095,46.2802 64.5,52C 63.9558,52.7172 63.2891,53.2172 62.5,53.5 Z"/></g>
<g><path style="opacity:1" fill="#141418" d="M 12.5,40.5 C 12.8333,41.8333 13.1667,43.1667 13.5,44.5C 12.3593,42.7705 10.6926,41.7705 8.5,41.5C 7.5,41.8333 6.5,42.1667 5.5,42.5C 6.19251,43.5178 6.85917,44.5178 7.5,45.5C 7.70311,47.0443 8.36977,48.3777 9.5,49.5C 8.30524,51.7513 7.30524,54.0846 6.5,56.5C 5.67504,57.3857 4.67504,57.719 3.5,57.5C 3.5,51.8333 3.5,46.1667 3.5,40.5C 6.5,40.5 9.5,40.5 12.5,40.5 Z"/></g>
<g><path style="opacity:1" fill="#15141f" d="M 33.5,52.5 C 33.5,53.5 33.5,54.5 33.5,55.5C 35.46,54.8617 37.2933,54.8617 39,55.5C 40.3554,53.2263 41.8554,53.2263 43.5,55.5C 42.8106,56.7736 41.9772,56.7736 41,55.5C 41.2626,56.9506 41.0959,58.2839 40.5,59.5C 39.4805,58.3128 38.3139,57.3128 37,56.5C 36.6012,56.7284 36.4346,57.0618 36.5,57.5C 34.2776,57.178 32.4443,57.8446 31,59.5C 30.2904,58.0267 29.1238,57.3601 27.5,57.5C 27.6713,54.2027 27.0046,53.8694 25.5,56.5C 27.503,58.1331 28.8363,60.1331 29.5,62.5C 31.1998,62.6261 32.6998,63.2927 34,64.5C 34.9454,64.0946 35.6121,63.428 36,62.5C 36.4384,64.6418 37.2718,65.9751 38.5,66.5C 36.8008,66.3398 35.1341,66.5065 33.5,67C 34.5,67.3333 35.5,67.6667 36.5,68C 35.2625,68.2321 34.2625,68.7321 33.5,69.5C 33.1667,69.5 32.8333,69.5 32.5,69.5C 30.1829,65.8536 27.5162,62.5203 24.5,59.5C 23.8902,58.609 23.5569,57.609 23.5,56.5C 22.2882,53.5316 22.2882,50.5316 23.5,47.5C 23.56,46.9569 23.8933,46.6236 24.5,46.5C 25.762,50.0958 28.0953,52.7625 31.5,54.5C 32.6956,54.1543 32.6956,53.6543 31.5,53C 32.0944,52.5357 32.7611,52.369 33.5,52.5 Z"/></g>
<g><path style="opacity:1" fill="#16161a" d="M 39.5,46.5 C 41.8437,47.9166 44.1771,49.2499 46.5,50.5C 48.3435,52.2789 49.0102,54.6122 48.5,57.5C 46.4458,57.6347 44.7791,56.968 43.5,55.5C 41.8554,53.2263 40.3554,53.2263 39,55.5C 37.2933,54.8617 35.46,54.8617 33.5,55.5C 33.5,54.5 33.5,53.5 33.5,52.5C 34.0431,52.44 34.3764,52.1067 34.5,51.5C 33.5,50.8333 32.5,50.1667 31.5,49.5C 33.3649,48.3338 35.0316,48.6671 36.5,50.5C 37.5244,49.1482 38.5244,47.8149 39.5,46.5 Z"/></g>
<g><path style="opacity:1" fill="#f74b28" d="M 50.5,50.5 C 52.1667,50.5 53.8333,50.5 55.5,50.5C 56.3382,50.8417 56.6716,51.5084 56.5,52.5C 54.6053,53.973 52.9387,55.6397 51.5,57.5C 50.5318,55.3926 50.1984,53.0593 50.5,50.5 Z"/></g>
<g><path style="opacity:1" fill="#16191e" d="M 7.5,45.5 C 10.7639,49.7097 13.7639,54.0431 16.5,58.5C 15.5542,59.9308 14.3875,61.2642 13,62.5C 11.3111,59.8669 9.81114,59.8669 8.5,62.5C 6.91696,62.5662 5.2503,62.2328 3.5,61.5C 3.5,60.1667 3.5,58.8333 3.5,57.5C 4.67504,57.719 5.67504,57.3857 6.5,56.5C 7.30524,54.0846 8.30524,51.7513 9.5,49.5C 8.36977,48.3777 7.70311,47.0443 7.5,45.5 Z"/></g>
<g><path style="opacity:1" fill="#1a1c1a" d="M 49.5,44.5 C 49.5,49.1667 49.5,53.8333 49.5,58.5C 49.5,59.5 49.5,60.5 49.5,61.5C 50.5,61.5 51.5,61.5 52.5,61.5C 53.087,62.7666 53.087,63.7666 52.5,64.5C 51.4763,63.1468 50.143,62.4802 48.5,62.5C 47.88,60.0233 46.88,60.0233 45.5,62.5C 43.8443,59.9818 42.5109,59.9818 41.5,62.5C 37.8127,64.19 37.146,63.69 39.5,61C 38.2899,59.9609 37.2899,58.7942 36.5,57.5C 36.4346,57.0618 36.6012,56.7284 37,56.5C 38.3139,57.3128 39.4805,58.3128 40.5,59.5C 41.0959,58.2839 41.2626,56.9506 41,55.5C 41.9772,56.7736 42.8106,56.7736 43.5,55.5C 44.7791,56.968 46.4458,57.6347 48.5,57.5C 49.0102,54.6122 48.3435,52.2789 46.5,50.5C 46.9038,49.2436 47.5705,48.0769 48.5,47C 46.9022,45.2739 47.2355,44.4406 49.5,44.5 Z"/></g>
<g><path style="opacity:1" fill="#bac47c" d="M 58.5,56.5 C 60.6977,56.4088 61.0311,57.0755 59.5,58.5C 58.5,58.5 57.5,58.5 56.5,58.5C 55.3398,56.7973 56.0065,56.1307 58.5,56.5 Z"/></g>
<g><path style="opacity:1" fill="#58acda" d="M 58.5,49.5 C 58.8333,49.5 59.1667,49.5 59.5,49.5C 59.2627,50.791 59.596,51.791 60.5,52.5C 60.8417,53.3382 61.5084,53.6716 62.5,53.5C 62.5,54.1667 62.5,54.8333 62.5,55.5C 60.901,55.2322 59.5676,55.5655 58.5,56.5C 56.0065,56.1307 55.3398,56.7973 56.5,58.5C 56.6599,59.8926 58.9933,59.8926 63.5,58.5C 64.0431,58.56 64.3764,58.8933 64.5,59.5C 62.1667,59.8333 59.8333,60.1667 57.5,60.5C 54.7305,60.4714 52.3972,59.8048 50.5,58.5C 51.1667,58.5 51.5,58.1667 51.5,57.5C 52.9387,55.6397 54.6053,53.973 56.5,52.5C 58.0481,52.1788 58.7148,51.1788 58.5,49.5 Z"/></g>
<g><path style="opacity:1" fill="#698489" d="M 58.5,56.5 C 59.5676,55.5655 60.901,55.2322 62.5,55.5C 63.391,56.1098 64.391,56.4431 65.5,56.5C 65.5,57.1667 65.5,57.8333 65.5,58.5C 65.5,58.8333 65.5,59.1667 65.5,59.5C 62.3157,61.4136 58.649,62.0803 54.5,61.5C 53.8333,61.5 53.1667,61.5 52.5,61.5C 51.5,61.5 50.5,61.5 49.5,61.5C 49.5,60.5 49.5,59.5 49.5,58.5C 49.8333,58.5 50.1667,58.5 50.5,58.5C 52.3972,59.8048 54.7305,60.4714 57.5,60.5C 59.8333,60.1667 62.1667,59.8333 64.5,59.5C 64.3764,58.8933 64.0431,58.56 63.5,58.5C 62.3684,57.6457 61.035,57.6457 59.5,58.5C 61.0311,57.0755 60.6977,56.4088 58.5,56.5 Z"/></g>
<g><path style="opacity:1" fill="#34a2f9" d="M 63.5,58.5 C 58.9933,59.8926 56.6599,59.8926 56.5,58.5C 57.5,58.5 58.5,58.5 59.5,58.5C 61.035,57.6457 62.3684,57.6457 63.5,58.5 Z"/></g>
<g><path style="opacity:1" fill="#15161a" d="M 36.5,57.5 C 37.2899,58.7942 38.2899,59.9609 39.5,61C 37.146,63.69 37.8127,64.19 41.5,62.5C 40.8776,64.1216 39.8776,65.4549 38.5,66.5C 37.2718,65.9751 36.4384,64.6418 36,62.5C 35.6121,63.428 34.9454,64.0946 34,64.5C 32.6998,63.2927 31.1998,62.6261 29.5,62.5C 28.8363,60.1331 27.503,58.1331 25.5,56.5C 27.0046,53.8694 27.6713,54.2027 27.5,57.5C 29.1238,57.3601 30.2904,58.0267 31,59.5C 32.4443,57.8446 34.2776,57.178 36.5,57.5 Z"/></g>
<g><path style="opacity:1" fill="#16171d" d="M 48.5,62.5 C 48.6168,64.4835 47.9501,66.1502 46.5,67.5C 47.2427,68.1818 47.9094,68.8485 48.5,69.5C 47.1667,71.8333 47.1667,74.1667 48.5,76.5C 45.001,76.259 44.6677,77.0924 47.5,79C 47.2716,79.3988 46.9382,79.5654 46.5,79.5C 44.0514,78.06 42.3847,76.06 41.5,73.5C 40.7377,71.7376 39.4044,70.7376 37.5,70.5C 36.4324,69.5655 35.099,69.2322 33.5,69.5C 34.2625,68.7321 35.2625,68.2321 36.5,68C 35.5,67.6667 34.5,67.3333 33.5,67C 35.1341,66.5065 36.8008,66.3398 38.5,66.5C 39.8776,65.4549 40.8776,64.1216 41.5,62.5C 42.5109,59.9818 43.8443,59.9818 45.5,62.5C 46.88,60.0233 47.88,60.0233 48.5,62.5 Z"/></g>
<g><path style="opacity:1" fill="#13131e" d="M 3.5,61.5 C 5.2503,62.2328 6.91696,62.5662 8.5,62.5C 8.67655,64.9806 7.67655,66.8139 5.5,68C 6.07124,69.2051 6.73791,70.3717 7.5,71.5C 8.5237,70.1468 9.85703,69.4802 11.5,69.5C 11.5,70.1667 11.5,70.8333 11.5,71.5C 10.2003,72.1079 8.86693,72.7745 7.5,73.5C 5.95894,72.7142 4.6256,71.7142 3.5,70.5C 3.5,67.5 3.5,64.5 3.5,61.5 Z"/></g>
<g><path style="opacity:1" fill="#14121e" d="M 16.5,58.5 C 18.1667,59.8333 19.8333,61.1667 21.5,62.5C 21.5,62.8333 21.5,63.1667 21.5,63.5C 19.3523,63.3894 19.019,64.056 20.5,65.5C 19.8118,66.8549 18.8118,67.8549 17.5,68.5C 15.5833,67.5944 13.9166,66.2611 12.5,64.5C 10.1282,67.1209 9.46157,66.7876 10.5,63.5C 10.0431,62.7025 9.37644,62.3691 8.5,62.5C 9.81114,59.8669 11.3111,59.8669 13,62.5C 14.3875,61.2642 15.5542,59.9308 16.5,58.5 Z"/></g>
<g><path style="opacity:1" fill="#110f1d" d="M 52.5,61.5 C 53.1667,61.5 53.8333,61.5 54.5,61.5C 55.9335,62.8333 57.2668,64.3333 58.5,66C 56.5,66.3333 54.5,66.6667 52.5,67C 51.6921,68.7058 50.3588,69.5391 48.5,69.5C 47.9094,68.8485 47.2427,68.1818 46.5,67.5C 47.9501,66.1502 48.6168,64.4835 48.5,62.5C 50.143,62.4802 51.4763,63.1468 52.5,64.5C 53.087,63.7666 53.087,62.7666 52.5,61.5 Z"/></g>
<g><path style="opacity:1" fill="#d3cbaa" d="M 9.5,39.5 C 7.16667,39.5 4.83333,39.5 2.5,39.5C 2.5,60.1667 2.5,80.8333 2.5,101.5C 2.5,107.5 2.5,113.5 2.5,119.5C 1.50598,109.681 1.17265,99.6806 1.5,89.5C 1.71481,87.8212 1.04814,86.8212 -0.5,86.5C -0.5,86.1667 -0.5,85.8333 -0.5,85.5C 0.496282,70.0089 0.829616,54.3422 0.5,38.5C 3.7131,38.19 6.7131,38.5233 9.5,39.5 Z"/></g>
<g><path style="opacity:1" fill="#16161c" d="M 8.5,62.5 C 9.37644,62.3691 10.0431,62.7025 10.5,63.5C 9.46157,66.7876 10.1282,67.1209 12.5,64.5C 13.9166,66.2611 15.5833,67.5944 17.5,68.5C 18.635,69.4745 19.635,70.6412 20.5,72C 20.1667,72.3333 19.8333,72.6667 19.5,73C 21.16,74.4877 22.16,76.321 22.5,78.5C 21.8333,78.5 21.1667,78.5 20.5,78.5C 18.6283,76.9385 16.2949,75.9385 13.5,75.5C 14.6872,74.4805 15.6872,73.3139 16.5,72C 15.1509,71.2276 14.3176,70.0609 14,68.5C 13.3292,69.2524 12.4959,69.5858 11.5,69.5C 9.85703,69.4802 8.5237,70.1468 7.5,71.5C 6.73791,70.3717 6.07124,69.2051 5.5,68C 7.67655,66.8139 8.67655,64.9806 8.5,62.5 Z"/></g>
<g><path style="opacity:1" fill="#171819" d="M 65.5,59.5 C 66.4849,63.6344 66.8182,67.9677 66.5,72.5C 63.7112,69.6399 60.3778,68.9733 56.5,70.5C 58.0396,71.5321 58.5396,72.8654 58,74.5C 56.386,71.3977 54.5526,71.0644 52.5,73.5C 51.3914,72.4104 50.3914,72.4104 49.5,73.5C 50.1925,74.5178 50.8592,75.5178 51.5,76.5C 50.5,76.5 49.5,76.5 48.5,76.5C 47.1667,74.1667 47.1667,71.8333 48.5,69.5C 50.3588,69.5391 51.6921,68.7058 52.5,67C 54.5,66.6667 56.5,66.3333 58.5,66C 57.2668,64.3333 55.9335,62.8333 54.5,61.5C 58.649,62.0803 62.3157,61.4136 65.5,59.5 Z"/></g>
<g><path style="opacity:1" fill="#216eb4" d="M 24.5,59.5 C 27.5162,62.5203 30.1829,65.8536 32.5,69.5C 31.791,70.404 30.791,70.7373 29.5,70.5C 28.448,70.6495 27.448,70.4828 26.5,70C 24.9343,67.6744 23.2676,65.5078 21.5,63.5C 21.5,63.1667 21.5,62.8333 21.5,62.5C 22.1667,61.1667 23.1667,60.1667 24.5,59.5 Z"/></g>
<g><path style="opacity:1" fill="#15141b" d="M 3.5,70.5 C 4.6256,71.7142 5.95894,72.7142 7.5,73.5C 8.86693,72.7745 10.2003,72.1079 11.5,71.5C 10.8818,73.4234 11.2151,75.4234 12.5,77.5C 11.7573,78.1818 11.0906,78.8485 10.5,79.5C 9.25025,79.5774 8.41691,80.244 8,81.5C 6.69266,79.8082 5.19266,78.4749 3.5,77.5C 3.5,75.1667 3.5,72.8333 3.5,70.5 Z"/></g>
<g><path style="opacity:1" fill="#18191d" d="M 21.5,63.5 C 23.2676,65.5078 24.9343,67.6744 26.5,70C 27.448,70.4828 28.448,70.6495 29.5,70.5C 29.5,71.1667 29.5,71.8333 29.5,72.5C 28.6942,73.9972 28.0276,75.6639 27.5,77.5C 27.0431,78.2975 26.3764,78.6309 25.5,78.5C 24.5,78.5 23.5,78.5 22.5,78.5C 22.16,76.321 21.16,74.4877 19.5,73C 19.8333,72.6667 20.1667,72.3333 20.5,72C 19.635,70.6412 18.635,69.4745 17.5,68.5C 18.8118,67.8549 19.8118,66.8549 20.5,65.5C 19.019,64.056 19.3523,63.3894 21.5,63.5 Z"/></g>
<g><path style="opacity:1" fill="#14121b" d="M 66.5,72.5 C 66.5,75.5 66.5,78.5 66.5,81.5C 65.1667,81.5 63.8333,81.5 62.5,81.5C 62.2623,78.9315 60.929,77.2648 58.5,76.5C 56.8002,76.6261 55.3002,77.2927 54,78.5C 52.9889,77.9444 52.1556,77.2778 51.5,76.5C 50.8592,75.5178 50.1925,74.5178 49.5,73.5C 50.3914,72.4104 51.3914,72.4104 52.5,73.5C 54.5526,71.0644 56.386,71.3977 58,74.5C 58.5396,72.8654 58.0396,71.5321 56.5,70.5C 60.3778,68.9733 63.7112,69.6399 66.5,72.5 Z"/></g>
<g><path style="opacity:1" fill="#d1d6d6" d="M 32.5,69.5 C 32.8333,69.5 33.1667,69.5 33.5,69.5C 35.099,69.2322 36.4324,69.5655 37.5,70.5C 36.6091,72.6089 35.4424,74.6089 34,76.5C 32.7012,76.0338 31.2012,76.0338 29.5,76.5C 29.5,75.1667 29.5,73.8333 29.5,72.5C 29.5,71.8333 29.5,71.1667 29.5,70.5C 30.791,70.7373 31.791,70.404 32.5,69.5 Z"/></g>
<g><path style="opacity:1" fill="#94958c" d="M 37.5,70.5 C 39.4044,70.7376 40.7377,71.7376 41.5,73.5C 39.52,74.4736 37.8533,75.807 36.5,77.5C 35.1805,78.9418 33.5138,79.6085 31.5,79.5C 31.44,78.9569 31.1067,78.6236 30.5,78.5C 29.5713,79.6888 29.238,81.0222 29.5,82.5C 28.1667,81.1667 26.8333,79.8333 25.5,78.5C 26.3764,78.6309 27.0431,78.2975 27.5,77.5C 28.0276,75.6639 28.6942,73.9972 29.5,72.5C 29.5,73.8333 29.5,75.1667 29.5,76.5C 31.2012,76.0338 32.7012,76.0338 34,76.5C 35.4424,74.6089 36.6091,72.6089 37.5,70.5 Z"/></g>
<g><path style="opacity:0.757" fill="#fbea93" d="M 67.5,62.5 C 68.1667,62.8333 68.8333,63.1667 69.5,63.5C 69.5,82.5 69.5,101.5 69.5,120.5C 68.391,120.557 67.391,120.89 66.5,121.5C 66.5,120.833 66.5,120.167 66.5,119.5C 67.497,100.674 67.8303,81.674 67.5,62.5 Z"/></g>
<g><path style="opacity:1" fill="#3f3c33" d="M 9.5,39.5 C 12.8333,39.5 16.1667,39.5 19.5,39.5C 19.5,39.8333 19.5,40.1667 19.5,40.5C 17.1667,40.5 14.8333,40.5 12.5,40.5C 9.5,40.5 6.5,40.5 3.5,40.5C 3.5,46.1667 3.5,51.8333 3.5,57.5C 3.5,58.8333 3.5,60.1667 3.5,61.5C 3.5,64.5 3.5,67.5 3.5,70.5C 3.5,72.8333 3.5,75.1667 3.5,77.5C 3.5,78.8333 3.5,80.1667 3.5,81.5C 3.82404,88.3543 3.49071,95.021 2.5,101.5C 2.5,80.8333 2.5,60.1667 2.5,39.5C 4.83333,39.5 7.16667,39.5 9.5,39.5 Z"/></g>
<g><path style="opacity:1" fill="#eeefeb" d="M 41.5,73.5 C 42.3847,76.06 44.0514,78.06 46.5,79.5C 46.5394,80.5832 46.8728,81.5832 47.5,82.5C 46.675,83.3857 45.675,83.719 44.5,83.5C 39.2128,84.8616 36.5461,82.8616 36.5,77.5C 37.8533,75.807 39.52,74.4736 41.5,73.5 Z"/></g>
<g><path style="opacity:1" fill="#110f1d" d="M 58.5,76.5 C 60.929,77.2648 62.2623,78.9315 62.5,81.5C 63.8333,81.5 65.1667,81.5 66.5,81.5C 66.5,82.1667 66.5,82.8333 66.5,83.5C 65.6909,85.2922 65.1909,87.2922 65,89.5C 63.8118,88.4366 63.3118,87.1033 63.5,85.5C 61.6776,85.1692 60.0109,84.5025 58.5,83.5C 58.2969,81.9557 57.6302,80.6223 56.5,79.5C 57.6119,78.7348 58.2786,77.7348 58.5,76.5 Z"/></g>
<g><path style="opacity:1" fill="#171818" d="M 20.5,78.5 C 19.5,78.5 18.5,78.5 17.5,78.5C 17.615,80.9468 18.615,82.9468 20.5,84.5C 20.5,84.8333 20.5,85.1667 20.5,85.5C 18.7231,85.2137 17.0564,84.5471 15.5,83.5C 10.6825,86.2857 9.01586,84.9523 10.5,79.5C 11.0906,78.8485 11.7573,78.1818 12.5,77.5C 11.2151,75.4234 10.8818,73.4234 11.5,71.5C 11.5,70.8333 11.5,70.1667 11.5,69.5C 12.4959,69.5858 13.3292,69.2524 14,68.5C 14.3176,70.0609 15.1509,71.2276 16.5,72C 15.6872,73.3139 14.6872,74.4805 13.5,75.5C 16.2949,75.9385 18.6283,76.9385 20.5,78.5 Z"/></g>
<g><path style="opacity:1" fill="#e9e9e7" d="M 20.5,78.5 C 21.1667,78.5 21.8333,78.5 22.5,78.5C 23.5,78.5 24.5,78.5 25.5,78.5C 26.8333,79.8333 28.1667,81.1667 29.5,82.5C 29.5,83.1667 29.8333,83.5 30.5,83.5C 29.6661,84.7479 28.3328,85.4146 26.5,85.5C 24.4523,85.3282 22.4523,84.9949 20.5,84.5C 18.615,82.9468 17.615,80.9468 17.5,78.5C 18.5,78.5 19.5,78.5 20.5,78.5 Z"/></g>
<g><path style="opacity:1" fill="#c4b761" d="M 31.5,79.5 C 32.209,80.404 33.209,80.7373 34.5,80.5C 34.5,81.5 34.5,82.5 34.5,83.5C 33.1667,83.5 31.8333,83.5 30.5,83.5C 29.8333,83.5 29.5,83.1667 29.5,82.5C 29.238,81.0222 29.5713,79.6888 30.5,78.5C 31.1067,78.6236 31.44,78.9569 31.5,79.5 Z"/></g>
<g><path style="opacity:1" fill="#b8bcb8" d="M 36.5,77.5 C 36.5461,82.8616 39.2128,84.8616 44.5,83.5C 44.5,83.8333 44.5,84.1667 44.5,84.5C 42.4727,84.3379 40.4727,84.5045 38.5,85C 37.944,85.3826 37.6107,85.8826 37.5,86.5C 35.9891,87.5025 34.3224,88.1692 32.5,88.5C 32.0825,87.7784 31.4158,87.2784 30.5,87C 27.5184,86.502 24.5184,86.3354 21.5,86.5C 21.5,85.8333 21.1667,85.5 20.5,85.5C 20.5,85.1667 20.5,84.8333 20.5,84.5C 22.4523,84.9949 24.4523,85.3282 26.5,85.5C 28.3328,85.4146 29.6661,84.7479 30.5,83.5C 31.8333,83.5 33.1667,83.5 34.5,83.5C 34.5,82.5 34.5,81.5 34.5,80.5C 33.209,80.7373 32.209,80.404 31.5,79.5C 33.5138,79.6085 35.1805,78.9418 36.5,77.5 Z"/></g>
<g><path style="opacity:1" fill="#1a1a1e" d="M 48.5,76.5 C 49.5,76.5 50.5,76.5 51.5,76.5C 52.1556,77.2778 52.9889,77.9444 54,78.5C 55.3002,77.2927 56.8002,76.6261 58.5,76.5C 58.2786,77.7348 57.6119,78.7348 56.5,79.5C 57.6302,80.6223 58.2969,81.9557 58.5,83.5C 56.857,83.5198 55.5237,82.8532 54.5,81.5C 53.5,82.5 52.5,83.5 51.5,84.5C 52.6225,86.4816 52.6225,88.4816 51.5,90.5C 50.5084,90.3284 49.8417,90.6618 49.5,91.5C 47.4776,89.4687 45.8109,87.1354 44.5,84.5C 44.5,84.1667 44.5,83.8333 44.5,83.5C 45.675,83.719 46.675,83.3857 47.5,82.5C 46.8728,81.5832 46.5394,80.5832 46.5,79.5C 46.9382,79.5654 47.2716,79.3988 47.5,79C 44.6677,77.0924 45.001,76.259 48.5,76.5 Z"/></g>
<g><path style="opacity:1" fill="#18181b" d="M 3.5,81.5 C 6.67412,81.9522 7.00745,82.9522 4.5,84.5C 5.37598,85.2508 6.37598,85.7508 7.5,86C 7.58939,87.7161 7.25606,89.5494 6.5,91.5C 7,91.8333 7.5,92.1667 8,92.5C 9.01106,91.9444 9.84439,91.2778 10.5,90.5C 10.5198,92.143 9.85318,93.4763 8.5,94.5C 9.61191,95.2652 10.2786,96.2652 10.5,97.5C 9.21119,98.6366 8.21119,99.9699 7.5,101.5C 6.66175,101.842 6.32842,102.508 6.5,103.5C 4.81821,108.342 5.81821,112.675 9.5,116.5C 8.22641,117.189 8.22641,118.023 9.5,119C 8.20677,119.49 6.87344,119.657 5.5,119.5C 4.83333,115.5 4.16667,115.5 3.5,119.5C 3.16667,119.5 2.83333,119.5 2.5,119.5C 2.5,113.5 2.5,107.5 2.5,101.5C 3.49071,95.021 3.82404,88.3543 3.5,81.5 Z"/></g>
<g><path style="opacity:1" fill="#12111f" d="M 3.5,77.5 C 5.19266,78.4749 6.69266,79.8082 8,81.5C 8.41691,80.244 9.25025,79.5774 10.5,79.5C 9.01586,84.9523 10.6825,86.2857 15.5,83.5C 17.0564,84.5471 18.7231,85.2137 20.5,85.5C 21.1667,85.5 21.5,85.8333 21.5,86.5C 19.9401,86.0446 18.4401,86.7112 17,88.5C 14.1131,86.1502 11.9465,86.8169 10.5,90.5C 9.84439,91.2778 9.01106,91.9444 8,92.5C 7.5,92.1667 7,91.8333 6.5,91.5C 7.25606,89.5494 7.58939,87.7161 7.5,86C 6.37598,85.7508 5.37598,85.2508 4.5,84.5C 7.00745,82.9522 6.67412,81.9522 3.5,81.5C 3.5,80.1667 3.5,78.8333 3.5,77.5 Z"/></g>
<g><path style="opacity:1" fill="#14141a" d="M 58.5,83.5 C 60.0109,84.5025 61.6776,85.1692 63.5,85.5C 63.3118,87.1033 63.8118,88.4366 65,89.5C 65.1909,87.2922 65.6909,85.2922 66.5,83.5C 66.5,86.1667 66.5,88.8333 66.5,91.5C 63.8561,89.9658 61.5228,90.2991 59.5,92.5C 57.8208,89.9005 55.9875,89.9005 54,92.5C 52.9889,91.9444 52.1556,91.2778 51.5,90.5C 52.6225,88.4816 52.6225,86.4816 51.5,84.5C 52.5,83.5 53.5,82.5 54.5,81.5C 55.5237,82.8532 56.857,83.5198 58.5,83.5 Z"/></g>
<g><path style="opacity:1" fill="#1a1b1b" d="M 21.5,86.5 C 24.5184,86.3354 27.5184,86.502 30.5,87C 31.4158,87.2784 32.0825,87.7784 32.5,88.5C 31.391,88.5569 30.391,88.8902 29.5,89.5C 29.44,88.9569 29.1067,88.6236 28.5,88.5C 26.7988,89.802 25.6322,91.4687 25,93.5C 23.6861,92.6872 22.5195,91.6872 21.5,90.5C 20.7492,91.376 20.2492,92.376 20,93.5C 18.5267,90.2589 16.6934,89.9256 14.5,92.5C 13.3777,91.3698 12.0443,90.7031 10.5,90.5C 11.9465,86.8169 14.1131,86.1502 17,88.5C 18.4401,86.7112 19.9401,86.0446 21.5,86.5 Z"/></g>
<g><path style="opacity:1" fill="#85773d" d="M 66.5,39.5 C 67.492,46.9818 67.8254,54.6484 67.5,62.5C 67.8303,81.674 67.497,100.674 66.5,119.5C 66.5,115.167 66.5,110.833 66.5,106.5C 66.5,104.5 66.5,102.5 66.5,100.5C 66.5,97.5 66.5,94.5 66.5,91.5C 66.5,88.8333 66.5,86.1667 66.5,83.5C 66.5,82.8333 66.5,82.1667 66.5,81.5C 66.5,78.5 66.5,75.5 66.5,72.5C 66.8182,67.9677 66.4849,63.6344 65.5,59.5C 65.5,59.1667 65.5,58.8333 65.5,58.5C 66.4902,52.3554 66.8235,46.0221 66.5,39.5 Z"/></g>
<g><path style="opacity:1" fill="#171819" d="M 51.5,90.5 C 52.1556,91.2778 52.9889,91.9444 54,92.5C 55.9875,89.9005 57.8208,89.9005 59.5,92.5C 59.7072,96.3024 58.3739,98.3024 55.5,98.5C 53.8527,95.8536 51.8527,93.5202 49.5,91.5C 49.8417,90.6618 50.5084,90.3284 51.5,90.5 Z"/></g>
<g><path style="opacity:1" fill="#2169ae" d="M 44.5,84.5 C 45.8109,87.1354 47.4776,89.4687 49.5,91.5C 51.8527,93.5202 53.8527,95.8536 55.5,98.5C 55.8333,99.1667 56.1667,99.8333 56.5,100.5C 56.2648,101.097 55.7648,101.43 55,101.5C 53.9895,101.108 53.4895,100.441 53.5,99.5C 52.2736,100.363 50.9403,100.363 49.5,99.5C 48.8333,99.1667 48.1667,98.8333 47.5,98.5C 46.9202,96.2512 45.5869,94.5846 43.5,93.5C 42.588,91.4048 41.4213,89.4048 40,87.5C 39.3292,86.7476 38.4959,86.4142 37.5,86.5C 37.6107,85.8826 37.944,85.3826 38.5,85C 40.4727,84.5045 42.4727,84.3379 44.5,84.5 Z"/></g>
<g><path style="opacity:1" fill="#13131d" d="M 29.5,89.5 C 28.1931,90.8016 28.1931,92.135 29.5,93.5C 28.624,94.2508 27.624,94.7508 26.5,95C 29.3805,95.3502 32.0471,96.1835 34.5,97.5C 32.0122,99.3878 29.0122,100.055 25.5,99.5C 24.078,98.075 22.4113,97.075 20.5,96.5C 19.1667,95.1667 17.8333,95.1667 16.5,96.5C 14.5,96.8333 12.5,97.1667 10.5,97.5C 10.2786,96.2652 9.61191,95.2652 8.5,94.5C 9.85318,93.4763 10.5198,92.143 10.5,90.5C 12.0443,90.7031 13.3777,91.3698 14.5,92.5C 16.6934,89.9256 18.5267,90.2589 20,93.5C 20.2492,92.376 20.7492,91.376 21.5,90.5C 22.5195,91.6872 23.6861,92.6872 25,93.5C 25.6322,91.4687 26.7988,89.802 28.5,88.5C 29.1067,88.6236 29.44,88.9569 29.5,89.5 Z"/></g>
<g><path style="opacity:1" fill="#15161a" d="M 37.5,86.5 C 38.4959,86.4142 39.3292,86.7476 40,87.5C 41.4213,89.4048 42.588,91.4048 43.5,93.5C 40.9179,93.0254 38.9179,93.6921 37.5,95.5C 36.7777,96.5511 35.7777,97.2178 34.5,97.5C 32.0471,96.1835 29.3805,95.3502 26.5,95C 27.624,94.7508 28.624,94.2508 29.5,93.5C 28.1931,92.135 28.1931,90.8016 29.5,89.5C 30.391,88.8902 31.391,88.5569 32.5,88.5C 34.3224,88.1692 35.9891,87.5025 37.5,86.5 Z"/></g>
<g><path style="opacity:1" fill="#14131a" d="M 66.5,91.5 C 66.5,94.5 66.5,97.5 66.5,100.5C 64.8002,100.626 63.3002,101.293 62,102.5C 61.0497,101.978 60.2164,101.311 59.5,100.5C 58.7025,100.957 58.3691,101.624 58.5,102.5C 57.8333,101.833 57.1667,101.167 56.5,100.5C 56.1667,99.8333 55.8333,99.1667 55.5,98.5C 58.3739,98.3024 59.7072,96.3024 59.5,92.5C 61.5228,90.2991 63.8561,89.9658 66.5,91.5 Z"/></g>
<g><path style="opacity:1" fill="#16141d" d="M 43.5,93.5 C 45.5869,94.5846 46.9202,96.2512 47.5,98.5C 43.9438,98.2749 43.6105,99.1082 46.5,101C 46.1667,101.5 45.8333,102 45.5,102.5C 44.3578,101.174 43.0245,100.174 41.5,99.5C 37.4852,99.7241 36.8185,98.5575 39.5,96C 39.3166,94.3164 38.6499,94.1498 37.5,95.5C 38.9179,93.6921 40.9179,93.0254 43.5,93.5 Z"/></g>
<g><path style="opacity:1" fill="#1a1a1b" d="M 41.5,99.5 C 41.5,99.8333 41.5,100.167 41.5,100.5C 40.6236,100.369 39.9569,100.702 39.5,101.5C 39.8197,104.715 39.8197,108.048 39.5,111.5C 38.5,111.5 37.5,111.5 36.5,111.5C 36.5,110.167 35.8333,109.5 34.5,109.5C 34.9371,107.926 35.9371,106.759 37.5,106C 37.1459,104.374 37.1459,102.541 37.5,100.5C 36.5,100.5 35.5,100.5 34.5,100.5C 34.5,101.833 34.5,103.167 34.5,104.5C 32.0194,104.677 30.1861,103.677 29,101.5C 28.7216,102.416 28.2216,103.082 27.5,103.5C 27.2671,101.938 26.6005,100.605 25.5,99.5C 29.0122,100.055 32.0122,99.3878 34.5,97.5C 35.7777,97.2178 36.7777,96.5511 37.5,95.5C 38.6499,94.1498 39.3166,94.3164 39.5,96C 36.8185,98.5575 37.4852,99.7241 41.5,99.5 Z"/></g>
<g><path style="opacity:1" fill="#79acd1" d="M 16.5,96.5 C 15.2029,98.1612 13.8696,99.8278 12.5,101.5C 10.9313,101.815 9.26465,101.815 7.5,101.5C 8.21119,99.9699 9.21119,98.6366 10.5,97.5C 12.5,97.1667 14.5,96.8333 16.5,96.5 Z"/></g>
<g><path style="opacity:1" fill="#556b8c" d="M 20.5,96.5 C 19.3552,97.7927 19.6885,98.9593 21.5,100C 20.9056,100.464 20.2389,100.631 19.5,100.5C 17.1658,99.1592 15.4991,99.8259 14.5,102.5C 13.5655,103.568 13.2322,104.901 13.5,106.5C 14.8333,106.5 16.1667,106.5 17.5,106.5C 17.5,106.833 17.5,107.167 17.5,107.5C 14.2459,107.794 11.5792,109.127 9.5,111.5C 9.48015,109.857 10.1468,108.524 11.5,107.5C 10.6798,105.889 9.34642,105.222 7.5,105.5C 8.88448,104.199 10.3845,104.199 12,105.5C 12.49,104.207 12.6567,102.873 12.5,101.5C 13.8696,99.8278 15.2029,98.1612 16.5,96.5C 17.8333,95.1667 19.1667,95.1667 20.5,96.5 Z"/></g>
<g><path style="opacity:1" fill="#a5b3ac" d="M 20.5,96.5 C 22.4113,97.075 24.078,98.075 25.5,99.5C 26.6005,100.605 27.2671,101.938 27.5,103.5C 26.5,103.5 25.5,103.5 24.5,103.5C 24.5,102.833 24.1667,102.5 23.5,102.5C 22.1667,101.833 20.8333,101.167 19.5,100.5C 20.2389,100.631 20.9056,100.464 21.5,100C 19.6885,98.9593 19.3552,97.7927 20.5,96.5 Z"/></g>
<g><path style="opacity:1" fill="#d5bf7d" d="M 19.5,100.5 C 20.8333,101.167 22.1667,101.833 23.5,102.5C 22.4855,103.765 20.9855,104.431 19,104.5C 17.0145,104.431 15.5145,103.765 14.5,102.5C 15.4991,99.8259 17.1658,99.1592 19.5,100.5 Z"/></g>
<g><path style="opacity:1" fill="#1e6fac" d="M 49.5,99.5 C 50.9403,100.363 52.2736,100.363 53.5,99.5C 53.4895,100.441 53.9895,101.108 55,101.5C 55.7648,101.43 56.2648,101.097 56.5,100.5C 57.1667,101.167 57.8333,101.833 58.5,102.5C 59.8109,105.135 61.4776,107.469 63.5,109.5C 64.1098,110.391 64.4431,111.391 64.5,112.5C 62.0504,112.702 59.717,112.369 57.5,111.5C 57.6716,110.508 57.3382,109.842 56.5,109.5C 55.4884,108.128 54.4884,106.795 53.5,105.5C 51.7745,103.772 50.4411,101.772 49.5,99.5 Z"/></g>
<g><path style="opacity:1" fill="#3862bd" d="M 12.5,101.5 C 12.6567,102.873 12.49,104.207 12,105.5C 10.3845,104.199 8.88448,104.199 7.5,105.5C 6.66175,105.158 6.32842,104.492 6.5,103.5C 6.32842,102.508 6.66175,101.842 7.5,101.5C 9.26465,101.815 10.9313,101.815 12.5,101.5 Z"/></g>
<g><path style="opacity:1" fill="#13101b" d="M 66.5,100.5 C 66.5,102.5 66.5,104.5 66.5,106.5C 65.8999,107.9 64.8999,108.9 63.5,109.5C 61.4776,107.469 59.8109,105.135 58.5,102.5C 58.3691,101.624 58.7025,100.957 59.5,100.5C 60.2164,101.311 61.0497,101.978 62,102.5C 63.3002,101.293 64.8002,100.626 66.5,100.5 Z"/></g>
<g><path style="opacity:1" fill="#fdec9b" d="M -0.5,86.5 C 1.04814,86.8212 1.71481,87.8212 1.5,89.5C 0.833333,97.5 0.166667,105.5 -0.5,113.5C -0.5,104.5 -0.5,95.5 -0.5,86.5 Z"/></g>
<g><path style="opacity:1" fill="#756e40" d="M 14.5,102.5 C 15.5145,103.765 17.0145,104.431 19,104.5C 20.9855,104.431 22.4855,103.765 23.5,102.5C 24.1667,102.5 24.5,102.833 24.5,103.5C 24.4431,104.609 24.1098,105.609 23.5,106.5C 21.8333,106.5 20.1667,106.5 18.5,106.5C 18.1667,106.5 17.8333,106.5 17.5,106.5C 16.1667,106.5 14.8333,106.5 13.5,106.5C 13.2322,104.901 13.5655,103.568 14.5,102.5 Z"/></g>
<g><path style="opacity:1" fill="#181720" d="M 34.5,109.5 C 32.9064,109.08 31.4064,108.414 30,107.5C 28.9701,107.836 28.4701,108.503 28.5,109.5C 27.609,108.89 26.609,108.557 25.5,108.5C 26.968,107.221 27.6347,105.554 27.5,103.5C 28.2216,103.082 28.7216,102.416 29,101.5C 30.1861,103.677 32.0194,104.677 34.5,104.5C 34.5,103.167 34.5,101.833 34.5,100.5C 35.5,100.5 36.5,100.5 37.5,100.5C 37.1459,102.541 37.1459,104.374 37.5,106C 35.9371,106.759 34.9371,107.926 34.5,109.5 Z"/></g>
<g><path style="opacity:1" fill="#110e1d" d="M 41.5,100.5 C 41.7214,101.735 42.3881,102.735 43.5,103.5C 40.8333,105.167 40.8333,106.833 43.5,108.5C 42.4104,109.609 42.4104,110.609 43.5,111.5C 44.2876,110.23 45.2876,109.23 46.5,108.5C 47.1667,108.5 47.5,108.833 47.5,109.5C 47.5394,110.583 47.8728,111.583 48.5,112.5C 47.675,113.386 46.675,113.719 45.5,113.5C 43.549,113.773 42.049,113.107 41,111.5C 39.3111,114.133 37.8111,114.133 36.5,111.5C 37.5,111.5 38.5,111.5 39.5,111.5C 39.8197,108.048 39.8197,104.715 39.5,101.5C 39.9569,100.702 40.6236,100.369 41.5,100.5 Z"/></g>
<g><path style="opacity:1" fill="#191a1a" d="M 47.5,98.5 C 48.1667,98.8333 48.8333,99.1667 49.5,99.5C 50.4411,101.772 51.7745,103.772 53.5,105.5C 52.8501,105.804 52.1835,106.137 51.5,106.5C 50.7568,105.092 49.9234,103.759 49,102.5C 47.4107,104.026 45.5774,105.193 43.5,106C 44.5707,106.852 45.5707,107.685 46.5,108.5C 45.2876,109.23 44.2876,110.23 43.5,111.5C 42.4104,110.609 42.4104,109.609 43.5,108.5C 40.8333,106.833 40.8333,105.167 43.5,103.5C 42.3881,102.735 41.7214,101.735 41.5,100.5C 41.5,100.167 41.5,99.8333 41.5,99.5C 43.0245,100.174 44.3578,101.174 45.5,102.5C 45.8333,102 46.1667,101.5 46.5,101C 43.6105,99.1082 43.9438,98.2749 47.5,98.5 Z"/></g>
<g><path style="opacity:1" fill="#13131c" d="M 53.5,105.5 C 54.4884,106.795 55.4884,108.128 56.5,109.5C 55.5655,110.568 55.2322,111.901 55.5,113.5C 52.9876,113.577 50.9876,112.577 49.5,110.5C 51.7476,109.676 51.9142,108.676 50,107.5C 49.2917,108.381 48.4584,109.047 47.5,109.5C 47.5,108.833 47.1667,108.5 46.5,108.5C 45.5707,107.685 44.5707,106.852 43.5,106C 45.5774,105.193 47.4107,104.026 49,102.5C 49.9234,103.759 50.7568,105.092 51.5,106.5C 52.1835,106.137 52.8501,105.804 53.5,105.5 Z"/></g>
<g><path style="opacity:1" fill="#adced6" d="M 18.5,106.5 C 20.1667,106.5 21.8333,106.5 23.5,106.5C 22.9181,107.931 22.0848,109.264 21,110.5C 20.3292,111.252 19.4959,111.586 18.5,111.5C 19.562,109.901 19.562,108.234 18.5,106.5 Z"/></g>
<g><path style="opacity:1" fill="#686454" d="M 24.5,103.5 C 25.5,103.5 26.5,103.5 27.5,103.5C 27.6347,105.554 26.968,107.221 25.5,108.5C 26.9326,110.518 26.5992,112.185 24.5,113.5C 23.5326,114.806 22.1993,115.473 20.5,115.5C 20.4729,113.801 19.8062,112.467 18.5,111.5C 19.4959,111.586 20.3292,111.252 21,110.5C 22.0848,109.264 22.9181,107.931 23.5,106.5C 24.1098,105.609 24.4431,104.609 24.5,103.5 Z"/></g>
<g><path style="opacity:1" fill="#3b4871" d="M 25.5,108.5 C 26.609,108.557 27.609,108.89 28.5,109.5C 29.3491,111.51 28.6824,113.177 26.5,114.5C 26.1583,113.662 25.4916,113.328 24.5,113.5C 26.5992,112.185 26.9326,110.518 25.5,108.5 Z"/></g>
<g><path style="opacity:1" fill="#191819" d="M 56.5,109.5 C 57.3382,109.842 57.6716,110.508 57.5,111.5C 59.14,114.405 58.4734,116.738 55.5,118.5C 53.8333,117.167 52.1667,115.833 50.5,114.5C 50.6242,115.61 50.2909,116.944 49.5,118.5C 48.1667,118.5 46.8333,118.5 45.5,118.5C 45.4459,116.86 45.4459,115.194 45.5,113.5C 46.675,113.719 47.675,113.386 48.5,112.5C 47.8728,111.583 47.5394,110.583 47.5,109.5C 48.4584,109.047 49.2917,108.381 50,107.5C 51.9142,108.676 51.7476,109.676 49.5,110.5C 50.9876,112.577 52.9876,113.577 55.5,113.5C 55.2322,111.901 55.5655,110.568 56.5,109.5 Z"/></g>
<g><path style="opacity:1" fill="#6e92bc" d="M 6.5,103.5 C 6.32842,104.492 6.66175,105.158 7.5,105.5C 9.34642,105.222 10.6798,105.889 11.5,107.5C 10.1468,108.524 9.48015,109.857 9.5,111.5C 11.4155,112.647 14.0822,112.647 17.5,111.5C 17.5,110.167 17.5,108.833 17.5,107.5C 17.5,107.167 17.5,106.833 17.5,106.5C 17.8333,106.5 18.1667,106.5 18.5,106.5C 19.562,108.234 19.562,109.901 18.5,111.5C 19.8062,112.467 20.4729,113.801 20.5,115.5C 22.1993,115.473 23.5326,114.806 24.5,113.5C 25.4916,113.328 26.1583,113.662 26.5,114.5C 26.1667,115.167 25.8333,115.833 25.5,116.5C 24.609,117.11 23.609,117.443 22.5,117.5C 19.602,114.892 16.602,114.892 13.5,117.5C 15.7427,118.474 18.076,118.808 20.5,118.5C 16.4119,120.197 12.7453,119.53 9.5,116.5C 5.81821,112.675 4.81821,108.342 6.5,103.5 Z"/></g>
<g><path style="opacity:1" fill="#2f5aa7" d="M 17.5,107.5 C 17.5,108.833 17.5,110.167 17.5,111.5C 14.0822,112.647 11.4155,112.647 9.5,111.5C 11.5792,109.127 14.2459,107.794 17.5,107.5 Z"/></g>
<g><path style="opacity:1" fill="#15141a" d="M 34.5,109.5 C 35.8333,109.5 36.5,110.167 36.5,111.5C 37.8111,114.133 39.3111,114.133 41,111.5C 42.049,113.107 43.549,113.773 45.5,113.5C 45.4459,115.194 45.4459,116.86 45.5,118.5C 45.9175,119.222 46.5842,119.722 47.5,120C 44.854,120.497 42.1873,120.664 39.5,120.5C 39.7989,118.396 39.4656,116.396 38.5,114.5C 36.6508,115.593 34.9842,116.926 33.5,118.5C 32.7025,118.043 32.3691,117.376 32.5,116.5C 32.5299,115.503 32.0299,114.836 31,114.5C 29.328,115.505 27.9946,116.839 27,118.5C 26.2828,117.956 25.7828,117.289 25.5,116.5C 25.8333,115.833 26.1667,115.167 26.5,114.5C 28.6824,113.177 29.3491,111.51 28.5,109.5C 28.4701,108.503 28.9701,107.836 30,107.5C 31.4064,108.414 32.9064,109.08 34.5,109.5 Z"/></g>
<g><path style="opacity:1" fill="#b8ddef" d="M 22.5,117.5 C 22.1583,118.338 21.4916,118.672 20.5,118.5C 18.076,118.808 15.7427,118.474 13.5,117.5C 16.602,114.892 19.602,114.892 22.5,117.5 Z"/></g>
<g><path style="opacity:1" fill="#1e1918" d="M 66.5,106.5 C 66.5,110.833 66.5,115.167 66.5,119.5C 56.9125,121.114 47.2458,122.114 37.5,122.5C 36.8333,122.5 36.5,122.833 36.5,123.5C 28.9945,121.717 21.3278,121.05 13.5,121.5C 19.6534,120.672 25.9867,120.172 32.5,120C 31.2089,118.708 31.2089,117.542 32.5,116.5C 32.3691,117.376 32.7025,118.043 33.5,118.5C 34.9842,116.926 36.6508,115.593 38.5,114.5C 39.4656,116.396 39.7989,118.396 39.5,120.5C 42.1873,120.664 44.854,120.497 47.5,120C 46.5842,119.722 45.9175,119.222 45.5,118.5C 46.8333,118.5 48.1667,118.5 49.5,118.5C 52.0972,118.721 52.0972,119.221 49.5,120C 53.8333,120.667 58.1667,120.667 62.5,120C 61.1667,119.667 59.8333,119.333 58.5,119C 60.2556,118.798 61.9223,118.298 63.5,117.5C 62.675,116.614 61.675,116.281 60.5,116.5C 60.5,115.5 60.5,114.5 60.5,113.5C 62.099,113.768 63.4324,113.434 64.5,112.5C 64.4431,111.391 64.1098,110.391 63.5,109.5C 64.8999,108.9 65.8999,107.9 66.5,106.5 Z"/></g>
<g><path style="opacity:1" fill="#110d22" d="M 57.5,111.5 C 59.717,112.369 62.0504,112.702 64.5,112.5C 63.4324,113.434 62.099,113.768 60.5,113.5C 60.5,114.5 60.5,115.5 60.5,116.5C 61.675,116.281 62.675,116.614 63.5,117.5C 61.9223,118.298 60.2556,118.798 58.5,119C 59.8333,119.333 61.1667,119.667 62.5,120C 58.1667,120.667 53.8333,120.667 49.5,120C 52.0972,119.221 52.0972,118.721 49.5,118.5C 50.2909,116.944 50.6242,115.61 50.5,114.5C 52.1667,115.833 53.8333,117.167 55.5,118.5C 58.4734,116.738 59.14,114.405 57.5,111.5 Z"/></g>
<g><path style="opacity:1" fill="#110e19" d="M 32.5,116.5 C 31.2089,117.542 31.2089,118.708 32.5,120C 25.9867,120.172 19.6534,120.672 13.5,121.5C 10.8333,121.5 8.16667,121.5 5.5,121.5C 4.5,121.167 3.83333,120.5 3.5,119.5C 4.16667,115.5 4.83333,115.5 5.5,119.5C 6.87344,119.657 8.20677,119.49 9.5,119C 8.22641,118.023 8.22641,117.189 9.5,116.5C 12.7453,119.53 16.4119,120.197 20.5,118.5C 21.4916,118.672 22.1583,118.338 22.5,117.5C 23.609,117.443 24.609,117.11 25.5,116.5C 25.7828,117.289 26.2828,117.956 27,118.5C 27.9946,116.839 29.328,115.505 31,114.5C 32.0299,114.836 32.5299,115.503 32.5,116.5 Z"/></g>
<g><path style="opacity:0.371" fill="#f7f3cf" d="M 1.5,89.5 C 1.17265,99.6806 1.50598,109.681 2.5,119.5C 2.83333,119.5 3.16667,119.5 3.5,119.5C 3.83333,120.5 4.5,121.167 5.5,121.5C 7.46053,123.113 9.79387,124.113 12.5,124.5C 10.6575,124.54 8.6575,124.874 6.5,125.5C 4.14955,124.139 1.81621,122.806 -0.5,121.5C -0.5,118.833 -0.5,116.167 -0.5,113.5C 0.166667,105.5 0.833333,97.5 1.5,89.5 Z"/></g>
<g><path style="opacity:1" fill="#bca352" d="M 66.5,119.5 C 66.5,120.167 66.5,120.833 66.5,121.5C 57.0144,122.494 47.3478,122.827 37.5,122.5C 47.2458,122.114 56.9125,121.114 66.5,119.5 Z"/></g>
<g><path style="opacity:0.224" fill="#fefccc" d="M 69.5,120.5 C 68.0791,123.082 65.9124,124.749 63,125.5C 54.3489,125.151 45.5155,125.151 36.5,125.5C 36.5,124.833 36.5,124.167 36.5,123.5C 36.5,122.833 36.8333,122.5 37.5,122.5C 47.3478,122.827 57.0144,122.494 66.5,121.5C 67.391,120.89 68.391,120.557 69.5,120.5 Z"/></g>
<g><path style="opacity:0.337" fill="#f0e4a7" d="M 5.5,121.5 C 8.16667,121.5 10.8333,121.5 13.5,121.5C 21.3278,121.05 28.9945,121.717 36.5,123.5C 36.5,124.167 36.5,124.833 36.5,125.5C 36.6495,126.552 36.4828,127.552 36,128.5C 33.5978,126.307 30.7644,124.974 27.5,124.5C 22.6616,124.694 17.6616,124.694 12.5,124.5C 9.79387,124.113 7.46053,123.113 5.5,121.5 Z"/></g>
<g><path style="opacity:0.757" fill="#f5e7a7" d="M 49.5,129.5 C 49.5,129.833 49.5,130.167 49.5,130.5C 48.1667,130.5 46.8333,130.5 45.5,130.5C 45.5,131.5 45.5,132.5 45.5,133.5C 47.099,133.768 48.4324,133.434 49.5,132.5C 50.1667,132.833 50.8333,133.167 51.5,133.5C 51.5,133.833 51.5,134.167 51.5,134.5C 49.139,134.674 46.8056,135.007 44.5,135.5C 44.5,136.5 44.5,137.5 44.5,138.5C 43.5,138.5 42.5,138.5 41.5,138.5C 42.1667,137.833 42.8333,137.167 43.5,136.5C 42.6371,135.06 42.6371,133.726 43.5,132.5C 40.9135,131.52 38.2469,131.187 35.5,131.5C 29.1933,131.459 27.5267,134.126 30.5,139.5C 28.8211,139.108 27.1545,138.608 25.5,138C 27.3588,137.399 27.6921,136.566 26.5,135.5C 26.4226,134.25 25.756,133.417 24.5,133C 28.3041,131.506 27.9707,130.672 23.5,130.5C 28.2215,129.549 32.8881,129.549 37.5,130.5C 41.4547,128.833 45.4547,128.5 49.5,129.5 Z"/></g>
<g><path style="opacity:1" fill="#d5c34c" d="M 23.5,130.5 C 27.9707,130.672 28.3041,131.506 24.5,133C 25.756,133.417 26.4226,134.25 26.5,135.5C 23.9162,134.952 22.9162,133.285 23.5,130.5 Z"/></g>
<g><path style="opacity:1" fill="#dbad2b" d="M 49.5,130.5 C 49.5,131.167 49.5,131.833 49.5,132.5C 48.4324,133.434 47.099,133.768 45.5,133.5C 45.5,132.5 45.5,131.5 45.5,130.5C 46.8333,130.5 48.1667,130.5 49.5,130.5 Z"/></g>
<g><path style="opacity:1" fill="#f1d97d" d="M 65.5,129.5 C 60.4866,131.459 60.4866,133.126 65.5,134.5C 64.0065,135.141 63.0065,136.141 62.5,137.5C 57.7193,136.909 56.0526,134.409 57.5,130C 59.6115,129.155 61.6115,128.322 63.5,127.5C 64.209,126.596 65.209,126.263 66.5,126.5C 66.7373,127.791 66.404,128.791 65.5,129.5 Z"/></g>
<g><path style="opacity:0.031" fill="#f9e9d0" d="M 5.5,127.5 C 6.20261,129.716 7.53594,131.549 9.5,133C 7.86586,133.494 6.19919,133.66 4.5,133.5C 4.5,134.5 4.5,135.5 4.5,136.5C 1.12247,134.52 1.78913,133.02 6.5,132C 4.17783,130.308 3.67783,128.474 5,126.5C 5.39877,126.728 5.56544,127.062 5.5,127.5 Z"/></g>
<g><path style="opacity:1" fill="#d9c352" d="M 12.5,130.5 C 15.4578,131.541 18.4578,131.541 21.5,130.5C 21.7135,132.144 21.3802,133.644 20.5,135C 18.3618,134.441 16.3618,134.608 14.5,135.5C 10.2601,135.107 9.59348,133.441 12.5,130.5 Z"/></g>
<g><path style="opacity:1" fill="#e1c44e" d="M 35.5,131.5 C 34.0318,133.916 33.3651,136.583 33.5,139.5C 34.552,139.649 35.552,139.483 36.5,139C 35.2528,137.506 35.2528,136.006 36.5,134.5C 37.1667,135.5 37.8333,136.5 38.5,137.5C 40.0709,136.691 41.7376,136.357 43.5,136.5C 42.8333,137.167 42.1667,137.833 41.5,138.5C 40.2905,138.932 39.2905,139.599 38.5,140.5C 36.5,140.5 34.5,140.5 32.5,140.5C 32.1583,139.662 31.4916,139.328 30.5,139.5C 27.5267,134.126 29.1933,131.459 35.5,131.5 Z"/></g>
<g><path style="opacity:1" fill="#d4a827" d="M 35.5,131.5 C 38.2469,131.187 40.9135,131.52 43.5,132.5C 42.6371,133.726 42.6371,135.06 43.5,136.5C 41.7376,136.357 40.0709,136.691 38.5,137.5C 37.8333,136.5 37.1667,135.5 36.5,134.5C 35.2528,136.006 35.2528,137.506 36.5,139C 35.552,139.483 34.552,139.649 33.5,139.5C 33.3651,136.583 34.0318,133.916 35.5,131.5 Z"/></g>
<g><path style="opacity:1" fill="#d8ac39" d="M 51.5,134.5 C 51.5,134.167 51.5,133.833 51.5,133.5C 53.5807,129.526 54.914,129.859 55.5,134.5C 54.1667,134.5 52.8333,134.5 51.5,134.5 Z"/></g>
<g><path style="opacity:1" fill="#f4d872" d="M 5.5,127.5 C 5.83333,127.5 6.16667,127.5 6.5,127.5C 8.37134,128.797 10.3713,129.797 12.5,130.5C 9.59348,133.441 10.2601,135.107 14.5,135.5C 13.376,136.809 11.876,137.475 10,137.5C 8.17502,137.057 6.34169,136.723 4.5,136.5C 4.5,135.5 4.5,134.5 4.5,133.5C 6.19919,133.66 7.86586,133.494 9.5,133C 7.53594,131.549 6.20261,129.716 5.5,127.5 Z"/></g>
<g><path style="opacity:0.682" fill="#eee7b7" d="M 65.5,129.5 C 65.5858,130.496 65.2524,131.329 64.5,132C 68.4499,134.967 67.7833,136.8 62.5,137.5C 63.0065,136.141 64.0065,135.141 65.5,134.5C 60.4866,133.126 60.4866,131.459 65.5,129.5 Z"/></g>
<g><path style="opacity:0.465" fill="#f8f6df" d="M 6.5,127.5 C 12.0329,127.8 17.6995,128.8 23.5,130.5C 22.9162,133.285 23.9162,134.952 26.5,135.5C 27.6921,136.566 27.3588,137.399 25.5,138C 27.1545,138.608 28.8211,139.108 30.5,139.5C 31.4916,139.328 32.1583,139.662 32.5,140.5C 29.8333,140.5 27.1667,140.5 24.5,140.5C 18.9165,138.705 12.9165,137.871 6.5,138C 5.5842,137.722 4.91753,137.222 4.5,136.5C 6.34169,136.723 8.17502,137.057 10,137.5C 11.876,137.475 13.376,136.809 14.5,135.5C 16.3618,134.608 18.3618,134.441 20.5,135C 21.3802,133.644 21.7135,132.144 21.5,130.5C 18.4578,131.541 15.4578,131.541 12.5,130.5C 10.3713,129.797 8.37134,128.797 6.5,127.5 Z"/></g>
<g><path style="opacity:0.22" fill="#f5f2d7" d="M 63.5,127.5 C 61.6115,128.322 59.6115,129.155 57.5,130C 56.0526,134.409 57.7193,136.909 62.5,137.5C 56.6523,137.453 50.6523,137.786 44.5,138.5C 44.5,137.5 44.5,136.5 44.5,135.5C 46.8056,135.007 49.139,134.674 51.5,134.5C 52.8333,134.5 54.1667,134.5 55.5,134.5C 54.914,129.859 53.5807,129.526 51.5,133.5C 50.8333,133.167 50.1667,132.833 49.5,132.5C 49.5,131.833 49.5,131.167 49.5,130.5C 49.5,130.167 49.5,129.833 49.5,129.5C 53.5518,128.288 58.2185,127.621 63.5,127.5 Z"/></g>
<g><path style="opacity:0.169" fill="#f1e4d3" d="M 41.5,138.5 C 42.5,138.5 43.5,138.5 44.5,138.5C 43.5,139.167 42.5,139.833 41.5,140.5C 40.5,140.5 39.5,140.5 38.5,140.5C 39.2905,139.599 40.2905,138.932 41.5,138.5 Z"/></g>
</svg>
